/* XPM */
static char *_98ed1332cb74ecaa956322d17a25325y2Rb7wak2lCm8n4T[] = {
/* columns rows colors chars-per-pixel */
"64 64 252 2 ",
"   c #2A161D",
".  c #35191D",
"X  c #3D1B1C",
"o  c #36171D",
"O  c #3E0E1C",
"+  c #361821",
"@  c #3D1B20",
"#  c #311720",
"$  c #2C1421",
"%  c #44121B",
"&  c #441C1D",
"*  c #4B1E1D",
"=  c #4C141A",
"-  c #53161B",
";  c #531D1D",
":  c #5C1A1C",
">  c #581719",
",  c #480B10",
"<  c #791306",
"1  c #631B1C",
"2  c #6A1E1D",
"3  c #641E17",
"4  c #721F1B",
"5  c #4C211D",
"6  c #53221D",
"7  c #5C231E",
"8  c #5C2715",
"9  c #6C2C15",
"0  c #63251E",
"q  c #6B251E",
"w  c #64291E",
"e  c #6B2A1E",
"r  c #642815",
"t  c #74221E",
"y  c #7B251E",
"u  c #732B1E",
"i  c #7B2C1E",
"p  c #762B15",
"a  c #75331E",
"s  c #7C321D",
"d  c #7A371A",
"f  c #6D301E",
"g  c #451B21",
"h  c #4C1D21",
"j  c #411620",
"k  c #531D22",
"l  c #5B1E23",
"z  c #5C1D28",
"x  c #631E22",
"c  c #6C1E23",
"v  c #4C2020",
"b  c #542121",
"n  c #5C2221",
"m  c #5A2821",
"M  c #642421",
"N  c #6B2522",
"B  c #652921",
"V  c #6C2921",
"C  c #6A2328",
"Z  c #732522",
"A  c #7C2523",
"S  c #742A22",
"D  c #7B2B22",
"F  c #792529",
"G  c #7C3221",
"H  c #783621",
"J  c #8B1C05",
"K  c #961D07",
"L  c #9C3A0E",
"P  c #832B1E",
"I  c #8A2C1D",
"U  c #85281B",
"Y  c #962D1E",
"T  c #823213",
"R  c #83331D",
"E  c #8B331D",
"W  c #893918",
"Q  c #943415",
"!  c #9C3B13",
"~  c #93331C",
"^  c #9C341C",
"/  c #933B1D",
"(  c #9B391C",
")  c #983614",
"_  c #922608",
"`  c #A22208",
"'  c #B82C05",
"]  c #A83D0E",
"[  c #B73A0A",
"{  c #AB3B15",
"}  c #A4351B",
"|  c #AC361A",
" . c #A33A1D",
".. c #A63A16",
"X. c #B33D14",
"o. c #B23B1B",
"O. c #BB3C1A",
"+. c #B93A17",
"@. c #832623",
"#. c #842D23",
"$. c #8B2C23",
"%. c #892828",
"&. c #932C23",
"*. c #9A2C23",
"=. c #982C28",
"-. c #843222",
";. c #8C3222",
":. c #8D3C23",
">. c #8F3328",
",. c #843922",
"<. c #933323",
"1. c #9B3423",
"2. c #943A22",
"3. c #9C3A23",
"4. c #943229",
"5. c #A52E24",
"6. c #A33425",
"7. c #AB3424",
"8. c #A33B23",
"9. c #AC3B24",
"0. c #A83A29",
"q. c #B53D23",
"w. c #BB3C22",
"e. c #B73423",
"r. c #C63807",
"t. c #D93B04",
"y. c #C33D1C",
"u. c #C93E19",
"i. c #C9360D",
"p. c #C23A26",
"a. c #D43C24",
"s. c #8A451C",
"d. c #99461B",
"f. c #96541E",
"g. c #AD430D",
"h. c #B4410D",
"j. c #BB430C",
"k. c #BB4709",
"l. c #BB560C",
"z. c #A84618",
"x. c #BD4313",
"c. c #BB431B",
"v. c #BC4A1B",
"b. c #B64516",
"n. c #A8541A",
"m. c #B75418",
"M. c #AE580F",
"N. c #A7611E",
"B. c #B7681B",
"V. c #894422",
"C. c #994722",
"Z. c #9B5221",
"A. c #895120",
"S. c #A54322",
"D. c #AA4322",
"F. c #AD4B23",
"G. c #A34925",
"H. c #B24324",
"J. c #BA4424",
"K. c #BC4D23",
"L. c #B34926",
"P. c #A75522",
"I. c #BA5523",
"U. c #B86021",
"Y. c #C3450C",
"T. c #CC4C0B",
"R. c #C74909",
"E. c #D44C05",
"W. c #DB4D05",
"Q. c #D34C0C",
"!. c #DB4D0B",
"~. c #DA4507",
"^. c #CB560A",
"/. c #DC520A",
"(. c #DB5709",
"). c #C44313",
"_. c #C24C15",
"`. c #CC4D1B",
"'. c #C94717",
"]. c #D44C12",
"[. c #D84717",
"{. c #C85817",
"}. c #D75814",
"|. c #E24C0C",
" X c #E74804",
".X c #F34B02",
"XX c #E45405",
"oX c #EC5306",
"OX c #EC5309",
"+X c #E75809",
"@X c #F35504",
"#X c #FA5503",
"$X c #F45A03",
"%X c #FD5C02",
"&X c #F3530B",
"*X c #F95A0B",
"=X c #E44C13",
"-X c #E64B18",
";X c #EC5513",
":X c #CA680B",
">X c #DA640C",
",X c #D9750B",
"<X c #C96518",
"1X c #D56719",
"2X c #DB7612",
"3X c #CD7318",
"4X c #EC6305",
"5X c #E46809",
"6X c #F46302",
"7X c #FE6301",
"8X c #FE6C01",
"9X c #F36B06",
"0X c #E9780A",
"qX c #F47304",
"wX c #FE7301",
"eX c #FE7C01",
"rX c #F67907",
"tX c #E76515",
"yX c #E37916",
"uX c #F47313",
"iX c #C74924",
"pX c #C95624",
"aX c #D85923",
"sX c #D24A25",
"dX c #D76825",
"fX c #CD6B23",
"gX c #E67525",
"hX c #D9880D",
"jX c #E7870A",
"kX c #FE8401",
"lX c #FE8B01",
"zX c #F2830A",
"xX c #F48605",
"cX c #ED990A",
"vX c #FE9401",
"bX c #FE9C01",
"nX c #F59806",
"mX c #E68616",
"MX c #F59414",
"NX c #F18D11",
"BX c #FEA401",
"VX c #FEAB01",
"CX c #F6A50A",
"ZX c #FEB300",
"AX c #FEBC01",
"SX c #FAB30D",
"DX c #F59024",
"FX c #FFC301",
"GX c #FECA01",
"HX c #FFCA0A",
"JX c #FFD901",
"KX c #FFE400",
/* pixels */
"m n n 0 0 M n n q y Z V S B ..b.D -.D S V V N e M q V q M l U XXq Z S S S D D D D D #.D V N S ] & 6 6 m n k i T X * h 6 6 7 6 7 ",
"w 0 M B w 0 M b q S S S u v T ( -.-.G D S S S S S S B q V Z M +.i D ;.-.-.#.-.-.;.$.>.;.$.D D ] n e V ; * Z Q.T X ; 7 m 7 7 7 7 ",
"V N e q V N M * t u i M & 6 b.;.;.D D D #.D #.D #.y S Z Z V c ).X.D <.3.2.;.#.#.$.1.<.1.1.N { j.N D ; ; } @X8X9 * M m 7 0 B V w ",
"V V u S Z q * : I 6 * X e c.4XC.#.Z M M n M M M N N M F U #.5.$XeX}.v.F.3.#.A S S >.6.&.A { 7XX.N 0 l | r.K t.p b V w N V V V V ",
"D D i D u ; & t ^ g 0 ~ }.bXvX}.o.=.@.A A A t y Z A | $X@X@X#XeXBXBXVXmXH.*.Z Z @.@.A $.t. X#Xj.x F | t.< , J [ h S e e u e D D ",
"G G #.q * & 1 Y [.X.'.0XZXAXjX}.].[.u.O.7.*.*.5.o.|.#X] 7 0 p d.^.0XVXVXeX`.7.5.5.7.'. XJ J i.#Xe.y.#Xt.K J J ~.7 S S S S D D D ",
"#.S k & h 2 &.u.~.XXkXGXAX1XG.>.@.I } u.~.OX;X=X%X!.q g * & X X 6 a d.M.:XqX*X&XOX@X#X` K r..X%X%X@XoX X Xt..X7XL n -.G P #.-.-.",
"v X & 7 y *.u.r.J Y.nXAX1XG.<.@.A q c x Z I [ %XOXl l 0 ; ; * ; 5 7 8 6 & & p j.%X7X.X.X.Xr.L 4 > > = - > 3 p _ j.n D G D Z w 7 ",
"* ; q U 5.OX@Xr.T.>XvX2XC.$.A Z N N q q N c z ^ @Xq w l 7 6 ; * 5 5 5 5 5 X .   * { %X] 1 % O % % = = = = = = % p T b 7 6 6 5 & ",
"y U Y u.%XW.0 S W V.{.v.@.Z 4 V C N c M N q V n !.~ x N M 7 n 7 6 * 5 5 & * * * & X T % % - - = - - - - - - ; : > { M m 0 7 M w ",
"*.o.r.'  Xr k Z -.G b.~ c Z C N 0 M M M M M V n ! [ x V M x n n n 6 6 6 6 b h h ; * 3 - - - - - - > > - : : : 1 1 Q h.V i R ;.<.",
"+X%Xr.' Q k u Z @.A ).@.c N 0 M M M M M q M N M e /.Z S Z V S V e M M 7 7 6 6 ; 6 6 1 > - > - > > : : : 1 1 1 2 t y /.c. .H.q.O.",
"z.d s 9 h Z D #.P @.'.V N N 0 M M M V w N e V e 0 /. .Z D D D S D S S S V w M n 7 7 1 - : : : 1 1 1 1 1 1 c 2 t P A _.qXaXaXtX8X",
"w 7 b * 6 D #.<.#.} T.N N w N 0 e q N V e V D a S (.(.D D -.;.#.-.D #.D D D S S N 0 2 > : 1 1 1 2 1 2 2 1 1 4 y I ~ z.eXvXVXlXM.",
"s f B M k D 1.3.$.].T.S S V N N e q e N e D e w 8.0XBXv.F A ;.>.>.;.#.#.#.#.D D D Z p : 1 2 2 c c c 2 2 4 4 t P I 3.D.jXFXAX,XV.",
",.D e 0 n S <.( 9.uX{.;.R S q q N V u D S m 5 $.(.AXAXvXb.A S ;.1.<.3.<.;.;.>.#.D C Q 1 2 2 4 4 4 4 y 4 y y @.#.Y 3.z.3XFXcXn.C.",
":.G V N N V ;.H.dXVX2XS./ G u D u D i w X & y >XVXnX<X0XkXo.A y ;.8.F.D.8.4.#.A S A x.2 2 4 4 A y @.@.@.U @.#.$.^ 3.z.v.xXB.P.S.",
":.#.S Z S #.8.pXMXKXVXK.;.V 7 6 6 6 & X - I oXkX^.3.<.@.k.7XiXS.Z.C.Z.G.2.-.#.>.8.Q.%Xy 2 A @.P @.U @.U @.$.I Y *.8.9.S.5XC.z.3.",
";.P D D D ;.v.zXGXKXGXnXm.P ; X g & > y X.@X7X| A G ,.H S 5XkXzXyXfXI.F.S.7.O.].XXE.oX).A y $.#.@.I &.&.Y &.&.&.1.1.7.1.(.s.<.3.",
";.-.D #.A ).kXxXmXMXgX0XeX8XXXY.{ } X.i.t.#X$Xi S D G H P.NXZXFXAXVXNXtX[.=X@XW.k.h.[ 4X{ P $.Y Y Y *.*.*.1.&.*.*.3.} 4.Q.( :.1.",
"1.$.#.@.} 8X_.^ K.pXpXL.].bXeX%XwXlXwXr.K  X#Xu V G d f.jXAXGXAXBXnXxX8X%X8X%XE.Y.[ R.xX0X3.@.&.*.*.*.6.1.6.6.6.=.6.6.&.'.{ ;.3.",
";.@.@.*.%XQ.m G C.z.D.8.xXeX!.O.{ ).kX$X' .X7Xi f f A.B.CXGXBX2XP.3.#.y Y b.oX8X8XqXvXGXVX'.$.y =.7.7.6.6.5.6.6.6.5.0.$.).R.A 1.",
"%.%.7.|.%Xe * e a R ~ 5XbXQ.%.@.A c X.wX$X$XwX2.d V.n.jXVXjXP.2.-.Z Z N N N y ( _.<X2XcXBXqX7.@.A 1.7.5.e.7.9.7.0.e.6.A X.$XZ F ",
"=X=X%X7X7XE.a 6 0 s 5XvXtX1.;.#.D Z V ^.kXbXbX{.d.m.wXlX:X:.#.Z N N c N N N e Z D ;.8.L.{.eX!.=.~ #.@.U @.$.=.=.=.1.=.@.| %X+.y.",
"! r r L R.6X8X5XM.0XbXqXH.1.<.#.S q S z.BXGXAXkXqX8X8Xz.A S V N N N 0 M N M q q Z R ;.1.-.T.wX}.J.7.=.U U @.@.%.$.&.&.=.o.7X%XE.",
"          5 T ^.kXBXbX1XF.S.;.-.S w e / bXVX0X,XeX6X<.N N C N M M 1 n M 0 0 M N w V S D D E 9XeXtX'.e.5.5.=.5.6.7.0.0.e.%X$X9   ",
"& X . X 5 5 6 f f.jXVXmXF.3.<.s e B n W vXkX(.5XwX( F Z N N M w M m M M M N M N N N V N #.:.jXVXeX7X%X@X-X[.'.p.p.iXsXeX4Xw @ 5 ",
"5 X X X 5 m w d s.N.hXBXjXd.-.i V 9 X ^.8XE.6XwXQ.A i q M M N M B M M V q q q V V S Z G V.B.AXvX`.^ } { +.E.OX9XkXzXbXxXa 7 m 5 ",
"m 5 & & 6 7 w a s.Z.Z.3XbXeXR a s m 9 wXY.J oXwXz.Z Z B M w w M B q w V N N V V S S S ,.f.CXBX{.D N x M M Z 4.H.0XZXZXz.a a 0 7 ",
"w m 7 6 5 8 w f R W V.W b.8X(.7 r n.xXwXr.[ 6XwX3.S N M q N q N e N V N V S S D D u -.V.hXZX<X>.S N M n 0 S #.3.J.bXcXd.-.D V B ",
"f w M w B m 0 V a G G s e b.7X^.0XZXZXzX9X4XwXqXV.G S V V M e V V q S u e M M 7 n M H :XAX0X8.-.Z e M M B V #.3.0.kX,X@.;.a V V ",
"H S Z q V B 0 B e u u S a N x.lXeX>X_.L.F.{.zXxXP.:.R V N V V V V u S 0 X X & 6 r #.}.VXVX_.>.#.S V B 0 N S D <.1.9XM.#.-.G D D ",
"G D u D S S B 0 N u S u D P 1.+Xc.&.>.<.:.C.3XFXhXV.V.-.y A S i y D 6   & : r y I XXlXBXbXc.F <.-.D V e V S D <.1.$X~ ;.;.P -.D ",
";.P -.@.D D V ; 6 m V u ;.0.`.+X&.#.q e H V.N.VXGXhXd.H w m 6 6 5 &   = 3 4 U +.$X$X[ W.BX_.$.,.3.d.:.G s #.#.D *.OXS Z -.>.;.;.",
"4.;.-.-.-.#.#.n ; M D <.q.pXkX5X4.G w n e d A.N.cXGXCXM.R 0 ; ; 7 q U } +.!..X%X.X` _ r.vX9Xq.3.3.C.E G w 7 C @.y.OXF 3 M V #.;.",
"S D @.#.-.#.S x c $.| ].yXnXGXyX3.a B 6 m f V.Z.B.ZXFXbXbXkX%X#X#X%X#XoX X.X%X%X%X#X#X7X7XkXrXaX{.z.2.R y @.5.p.&X%Xy.*.A C : 0 ",
"M x M Z Z 2 Z U Y.$X7XvXbXAXFX1X3.#.V 6 ; w a s.P.BXmX{.n.d.z.].7X.X' J ` t.7X%XXX{ <.1.`.kXGXSXDXgXsXiXp.u.-X%X%XoX#X@Xu.} $.Z ",
"u.| } *.&.*.y.#X7X%X/.'.w.2XZX<X2.-.V w 7 & ; s I.rXI.Z.,.H u #.]..Xt. X%X7XQ.E x n V -.3.pXcXKXHXMXuXuX8X%X!.{ &.$.*.'.%X#XOX|.",
"Q s Q +.@X@X7X%XY.I F 4.0.pXlX_.>.-.e * . & 0 <.iX9XF.V.d s R <.}.eX8X7X/.~ : l 7 n e a 2.K.gXSXJXAXBXeX`.;.Z V S Z @.F +.7X%XE.",
"h k ; l u XX#XP z n q D ;.o.8X).@.Z ; * 6 e -.H.;X7X}.2.a f G 9.wXlX9Xc.D V 0 7 k 5 7 u ,.D.pXgXMXVXkXc.#.D S D S q q @.oXY.0 g ",
"S S A S x |.Y.h 7 ; 7 M Z ^ 7X'.&.@.i D E  .b.Q.Y.g.k.v.b.b.K.1XvX0XK.3.E u B 5 * * 6 0 G / D.K.iXkXeX9.;.a u D S w z { E.h M V ",
";.<.$.Z @.%X~ n 6 6 5 n M #.%X[.0.w.9.E u w 6 & X X b V ;.z.5XbXZXyXI.D.:.D m 6 5 5 v 6 V G <.8.pXrX8X8.-.D D S q 0 h Y.) C #.;.",
"-.Z Z @.w.$XZ M 0 7 7 0 V ;.%X*X].( 7 X X & & * 5 7 e e R d.m.SXGXMXpXF.2.G f 7 6 7 m 7 5 M S 3.aX8X%X0.;.D 0 5 & X : !.( F 1.1.",
"A A =.e.*X/.t u V e V D D I 7XXX9 X & & & * * 5 b 7 M H / G.U.hXGXCXfXL.3.R H e M 0 w & X h M D.tXkXeXv.#.w * X & 7 ;.OX{ Z #.Z ",
"=.O.=X%X%XY.#.;.#.D -.P x R.XXX X * * 5 5 5 6 ; 6 7 e D -.d.I.3XZXNXpXL.S.;.G u V S 6 6 R  ._.=XkXkXT.(.3.#.S q D 8.J.%XY.F %.$.",
"&X%XoX'.%X|.F 4.;.;.$.0 Y 7X6 & 5 & * 5 ; 6 b 7 b M e a -.:.C.m.vXxXJ.L.S.2.;.D #.q 0 { wXkXeXkXkX7XXX6X;XD.9.c.`.].!.oX%Xu.y.a.",
"].Q M k { 7X+.@.@.;.-.$.%X! + 6 h ; 6 n 7 7 m M M M V S D -.;._.wXeX}.9.0.1.4.4.D 0 ( oXeXR.T i s W / E T.7X*X+Xy.^ %.%.W.7X#X%X",
"l h b : h T.8X+X`.pXsXqXqX6 h 6 n m M w M N B e B V V S V i -.(.(.+XwXiXL.L.0.3.i 1.}.kXL g k l w V S M Q.@X} A A A D D @.#XW.I ",
"n ; * 6 6 5 ! 4XeXbXBXbXg.b m 0 0 w V B e u V V S V S N M V ~ x.;.S.0XbX2XpXI.F.I.>XbXM.n N q q t i N ~ /.>.@.#.D Z S V y !.A M ",
"n h * v 7 7 M >.1XFXKXxXE H w V V V S S S S D S D D S 0 : c } R ,.A.<XFXJXFXAXCXMXAX2XH R D Z D D #.N +.o.$.4.>.#.P A M ) O.N M ",
"m 5 6 6 0 N #.8.iXMXFX{.#.H V S D D D D D D D P D #.A M l P P w f s.P.cXFXbXVXVXAXAXn.C.2.:.>.<.^ =.Z +. .<.<.;.;.-.#.M X.5.Z M ",
"n 7 m 0 N D #.8.H.}.vXd.D H y D D D -.#.#.#.;.-.#.#.D M q &.#.q 7 V ~ ,Xd.d.S.z.v.lXl.4.8.8.6.6.$.y 7.[.U 1.<.;.$.P D e Q.$.A N ",
"N q q u D i y =.0.c.wXi S D D #.P ;.#.#.>.;.$.<.4.R t M Z *.&.A D Z ..e B D #.<.$.^ Q.#.6.1.%.$.5.u.%X4XM #.1.1.E &.l L '.%.@.Z ",
"S S q 0 7 q A =.=.| #Xr D -.#.-.;.>.;.1.<.<.1.<.@.V V u &.e.O.&.@.{ 0 6 S G ;.3.>.c Q.).*.5.u.=XW.j.XXwX0 g r ~ <.w 9 $X[.%.&.#.",
"F F c y @.&.5.e.p.a.oX7 D $.;.;.<.<.<.1.3.1.@.V e D s <.w.p.=X$XoXs & 7 S ;.1.$.S @.].vX8X%XQ.T w k Z wX! o o X X ] Q.3.).y.%.%.",
"[.[.a.[.[.-X-X&X&X*X7Xq S <.<.<.1.1.8. .#.C 0 q D <.8.iXsX[.7X7XR.X 6 7 S <.$.N D 9.$XlX(.i l n N Z y wXqXs.= . 9 j.Z #.@.OX&X[.",
"g.L ) ) ) L ] X.~.wXvX..V 3.1.3.8.<.D M l M N D <.J.dXdXrXrX+X7X[ * M N Z $.q @.u.r.r.7Xq : u Z D A I eXBXlXE._.7Xi N #.*.oXW.R.",
"+ o . X % g g k z T.bX,X-.2.3.$.D M M x x M y 1.H.aXMXAXCX{.%.Q.Y.k 0 q q N F Q..X, < oXS Z D @.@.#.@.(.9X^ #.A +.R.Z } X.9 . . ",
"v g * v v b 7 7 M #.rXBXm.D #.Z S t N Z A $.5.w.;XlXGXFXfXD.-.b.T.l M C D  .].7X Xr.r.#XP C $.$.>.<.F W.{ x u S y 7X%XL . . X & ",
"& & & h * ; ; 7 M V m.BX0X .;.;.^ 1.Y &.*.e.[.$XR.:XxXBX<X0.-.g.+X@.8.).Q.Y.) r 9 ] t.wX5XQ A %.A c &.oXi Z y M { $Xr   X 5 X X ",
"g & 5 & ; 6 b l M M ( eX8X7X}.{.K.q.e.iX|./.d.8 5 f H l.qX~ V ..%XOX!.] 7 X # + + . * T (.eXT.@.*.).&X7X0 & u q k.5 . X X X X X ",
"v & 5 v 6 ; ; M M b T.].0.v.vXZXxXtX*X/.Q X   & 6 8 V m ^.XXR W.$XQ * @ & * * * * * & & & i 4X#X#XXXj.g.Y.r   p 8   5 X X X X 5 ",
"v & h 5 ; b l M l i ).@.1.1.5XZXvX4Xd.6 X 5 6 5 5 6 6 7 7 /.7XOX7 g 7 n 7 6 6 6 6 6 b : 6 * ; XX8       5 ! g.k.. X X X & X & 5 ",
"v v b 6 m 7 6 0 l ) D A ;.-.{.eXl.s e w 0 7 7 6 7 m 6 7 6 e %XE.k M M 0 M V w 0 0 M m M 0 M 0 h.X . & * & % L ] . 5 X X 5 & & & "
};
