/* XPM */
static char *_c2c17e2d6514758933fa3634730185dk4eU5bhBLeavSrwd[] = {
/* columns rows colors chars-per-pixel */
"64 64 42 1 ",
"  c #060A0D",
". c #060B0E",
"X c #060C0F",
"o c #060C10",
"O c #060D10",
"+ c #070E11",
"@ c #080E11",
"# c #090F12",
"$ c #080F13",
"% c #0A1014",
"& c #0A1015",
"* c #0A1116",
"= c #0B1116",
"- c #0B1117",
"; c #0B1218",
": c #0C1319",
"> c #0C151B",
", c #0D151B",
"< c #0D161C",
"1 c #0D171D",
"2 c #0E171D",
"3 c #0E181D",
"4 c #0F191F",
"5 c #0F1A21",
"6 c #101B22",
"7 c #101C23",
"8 c #101D25",
"9 c #111D25",
"0 c #111F28",
"q c #121F28",
"w c #132129",
"e c #13222A",
"r c #14222B",
"t c #15232D",
"y c #15242E",
"u c #16252F",
"i c #172631",
"p c #182833",
"a c #182834",
"s c #192B37",
"d c #1B2D3A",
"f c #1B2E3B",
/* pixels */
"XX  *%wwX ;;5000  +o  ++56  ::+o$*>>oo o-#$@  ++o+2200ff22  ;:88",
"XX  **w5  ;;0500  oo  ++66  ::oo$:>> o o#$@@  ++o 220wff<2  *$8w",
"++55>>14+o   +*$@+@@  ii++  ::oo86,>;;**::$*o+  ;*  66ry        ",
"++55>>54oo    $*@@@@  ii++  ;;o+86,>;;:$:$*++o  ;*  26yy        ",
"wwff44++;;+@    $*@@<<uu;;++2;      $$-$$*@XO   *; +65++oo26*$5,",
"wwff><++@+o@    $@@@<2yi:$@@<2      *@$2*$@+++  *$o@55++  62$:>,",
"wrwr  >>$@87        ++@@oooo<<$;$$ +>222>>  *+  $-o     ++#:  55",
"wwww  >>+@55        ++@@ooo <<$*;*+ >;2:>>  **  *$      @+$$  55",
"yr    $$ii88oo    +++**@**XX>>+ $$@++$++2<++ + X++  +@$**@  X >4",
"yy   o#@yy88oo    +++*+*;>XX>, +;2++@@++;<* oo++++  +@*$@*  X+11",
"    rqssyy    o >>  @@  +X+X++**>>,>****@*      ;$**5555,4X+  **",
"    rrsdyy     +>,  X   XXX+XX%>>>>>*****$      ::*$55554,++  **",
" @66ii88    ;;ww>>>;1>>1>>  +X++$$oo-@****    ++;;2;44**44++  ;;",
"@ 86ii88    ;;ww>>**>1>>>>   +++$-@o-$*-**    $+;;2254+*45++  ;;",
"oo        ++86$:    XX11>> X    o     -- +    ***$;<><@*>>>>X + ",
"o+        @o86-$    +X4,4>X           *$+     *<$$><2>*%>>>>  +X",
"@$6288--       O  <;<1+O14XX  1150rt  >>;;    2;:;5*>>2< o<1+   ",
"-$2688$-      O   <<<1oO4<X+  1405tt  >>;;    ;;2;>2>22>oo<<oo  ",
"#-#:7732          *$;;<<<4      OO    <>552<  oo;$;;$:22<>;5  **",
"-#-#77,2    ++    $***>>5<+           <<05;2  o *;;;;;225<<;  *+",
"<24536,,;;++ + oo ;$555<<<++  >20t55;;  55<<    o  o$$-:@+++  55",
"124263>>;;  + ++  $$555<<2++  >;t555;;  55>>      oo*::-@+++  54",
"  *,24;*>>;; +++    $+<< + +  25spss++4<55oo  o+,>      2>++    ",
"  ,*42-:>>;;+ ++    ++<<+ +   55ppis++<<55oo  +o,,      22*+XX +",
"+X;;,*4>**    ++**;$++@:+o$*  2>>,yw4>*:$:    ;:XX  ++%%><X+XX**",
" +;;**2<$*    +++;*;++;$ o*$  >2>4ww>2-*;*    ;;+X  ++%%>>XXX -*",
"11>1,4$*      **O*       o::  ++58fsyy6, +  @@657755444,2>XX  4,",
"111142*%      **>* X    @o$:  ++55ssyu63++  o$527755442,24XX  14",
"*>++++      +   ++2>,,+@  66$$  6w@%   X    0522X+      *,*%  ::",
"*;++X+       +  + ,,>>++  68,#  88%@ XX     55<>+X      ;**%  ::",
"        *$@@  ++  ;>aayy@+++@+00,:   X@-X >+fsii   ++*  ii>>X   ",
"   X    $*@   +   <<aayy@+++@@80::    *% X+*ssii  X+%%  ii,,X@  ",
"5252+ +@:$+@  ++@ --rrff>2  **55 @  *;78  ;;05ww  +ooo++::  2<+o",
"<525 ++@*;+@  ++ @**w8df<4  **85 +  *$88  ;;00wr  oooo++::  22oo",
"22>>;;:-::$*++  *-  66wu        @+55>265oo    $*++++  ii++  >;$$",
"24>,;;$$;:@+++  *:  66yu        @@55>:62o+    *$++++  ii++  ;;;$",
"+   $@:;$#$o +  **@@55+++ 15*$,>iiff2>++**+     $$@@,2yy$;++22  ",
"    @+:;$:oo@   :$+ 55++ +54**>>iiff>2@+;$X+    $*@@22yy;;++2:  ",
"++ O>>>>,,o $-  $*      +++*  55diww  ,>++55        +@@@+oo <2+;",
"++ o>>>>,,  *$  *@      @+%*  55iiww  >>**55     o  ++@oooo <2$;",
"<<++++++,,$++o +@@  @o$$+%  X+22wy    **yi55 +    @@**+*;: +2> o",
">>OO++++,2o+oo+o++  oo:-++  + 22ww   X*+iy50+     @@++;+;;+ >> o",
"*;<>;$*$-#      ;:$:55654>++  **<2  wwssyy+    X,,  ++  oo+++o$;",
";;<>$$<*#$      $:$:5555>4++  **14  wwssyu    +@,, X X   o +o+**",
"#$+ $#:;::    $o*,>252$*45X+  *,4555si50    *<rr>>;;>1>1>>  +o+$",
":$+o;$:$$$    +$;$<>25$*52++  :*4455ii05    <$qy>>;;1<<;><   +$+",
"o     $:o     :-*$>>,5$#>>>>  XXXX+X      ++56$#    +X<4<< o    ",
"     o:$oo    --**>>22#->>>4 XXXXX +      ++58$-     +4<<<o     ",
"88yy  >>%>    >*::,>>>2>++25 X  %%4505**       +  >>2<+o<2++  24",
"88qy  >>>% X  -,::>>>>>2  4<@   %%45w5%*      +   >>22+o22 o  4<",
"  o   ,,57,>  X@*:;*$:25<>>>  $*X+**551>     +    +$;;;22<      ",
"      >,77>>  + ;;;*:$22<>>>  -$+X**w5>>    O    @$;;$2;25 +    ",
"qr77-:  55>>       +@*,-++++  55**6654>>** O + +  $$88,211++  >>",
"qr76,-  55>>      + -*-*+++@  55*@5245>>*< o+ +   $$682214+X  >>",
"pppp@@,155X+  +X,>  X   ,>+@      *,<4;$><<*oo$@    @@22XXXX  44",
"pppp@@4155++   +,2      >>@@      ;;42*>><$>oooo    @@22XXXX  44",
"  rr2:*;*;    ;;oo  ++**><+   *$+@*-,:4>$:o   $#:$:$+@$*XX%*  ,>",
"  r022;*;;    <;++  @+@+>< +  @*@@*>**>2:$    $:$:$$+@2$XX**  >4",
",2ssyi44oo  ++52505526254>+   2<4,4>24$*      $#:$      XX*;  X+",
"22ssyy52oo  ++255555622224 +  2424>>42*$      #-$:      XX;;  ++",
"80@$  X+  X 5554+o      ***$  ***-++XX      +   @ 2>>>+@  55**  ",
"80$@   X    0511+       *>:*  :,,*++X+       o  @@>2>,++ +55*%  ",
"-: @  $$  $;ssii   +@@  ii2> @     X    $*oo  oo  >>apiy++++++ww",
":-    ;$  +*ssii  + @*  ii>>X     X     +$++  o+ o>>aiyy++++++wu"
};
