/* XPM */
static char *bb8fb99df35c48b1b970788dcdc0db9aYuLoOauWjARAtDS2[] = {
/* columns rows colors chars-per-pixel */
"64 64 48 1 ",
"  c #140E0B",
". c #150F0C",
"X c #17100C",
"o c #18110D",
"O c #19120E",
"+ c #1B130E",
"@ c #1C140F",
"# c #1D1510",
"$ c #1E1611",
"% c #201711",
"& c #211812",
"* c #221913",
"= c #241A13",
"- c #251A14",
"; c #261B15",
": c #271C16",
"> c #291D16",
", c #2B1F18",
"< c #2D2018",
"1 c #2E2119",
"2 c #2F221A",
"3 c #30231B",
"4 c #32241B",
"5 c #33251C",
"6 c #34261D",
"7 c #37271E",
"8 c #38281F",
"9 c #392920",
"0 c #3B2A20",
"q c #3C2B21",
"w c #3D2C22",
"e c #3F2D22",
"r c #402E23",
"t c #423025",
"y c #443125",
"u c #463327",
"i c #483427",
"p c #493528",
"a c #4D372A",
"s c #4E382B",
"d c #513A2C",
"f c #523B2D",
"g c #533C2E",
"h c #553D2E",
"j c #563E2F",
"k c #573F30",
"l c #5F4434",
"z c #604535",
/* pixels */
"::==11rr::33iirr,1>,115588=>13,,,144===%;;%*#.;;;;66aizl68->3,rq",
"::==11rr::33iirr11,,1,4388==31,>1144====;;%*O.;;;;66iizz88>>,3qq",
"33yy8800,,;;&&1,,>1133dd<<==13,,rr83>,>,;;**$%#.414,rrii=;=-%+3,",
"33yy8800,,;;&&,1>,,1,3dd<,==31,,rr33,>,>;;**%%.#,4,4rrip;;==++,,",
"aazzqq3366==$$$$=;,;r8aa33>>1,,,,,,>>>,3;;%%$$+o::;=66,,;>445456",
"aazzqq3366==$$$$==>>88aa31==,,,,,,>>>>1<;>*;$$oo::%;66,,>;454466",
"ssss55ww338w==@$%+&&33>>==%%13>>>>>>3333,,*%%%+#:*$$$$%%>>>;--88",
"ssss55ww33q8==$@%%&%13,;==%=31>>>>=>3331,,%*%*##*;##$$%%>>;>;>88",
"pp2555w0aar8;=++$$=;,,1113==>>::>>>>>>>>,1=%#%#$==%%%>3,>>**;;56",
"py5555w9aa88==++$%;=,11331==>>::>>>>>>>>,1;%+%%$==%%;=<3>>*%;;66",
"5555sslgii==$$%%,,;;;;;;;=====;:,,,,;,;;;=++oX%+>=,>4544,1>=%%,,",
"6554aagzii==$$&&,,;;;;;;=;====>>3,,,;;;=%;+%oo+#;=>,554311-=>;3,",
"549raary;=%%<<ii33<<<<<<,1O$%%;&=>===;>>>=XXXX%%=-,,333164;=%*,>",
"55rraayr=;%%<<ii33<<<<<,1,$@%$&;;==>;=,;==XXXX%%--11331346==%*>,",
",;11%;OO+o;=w8<<>>,><<3111&$  $$O+#+==,,==.X+o;,-=>>11133113&;;;",
";;1,%%OOo+=;88<<>>>,<<1311$$  $$+++#==;,==oXo+,;->,>111,1333=%;;",
">>55ry33$$$$=$;;::4388<133$$++55rraa,;8q>,*-#+,,>>>>,,,1,133%=%%",
";;55rr3,$$$$$=>;;,<3881133$$X+55qraa;,qq,,*%+#,,>>>>,,11,133;;%%",
",,338854$$$O$%;$;=,1144533$$+X;;,<1333qq99;,$#$$-;;;,>3311,,%%;=",
",>3,8855$$O+%%==;;,,335533$$X+&:1,3333qr99;;##$%-;>;>,331,,,-%--",
"131333,<,<%=$$$$$$>;q88511==$$06rrrr98,345,,#+#+%%==;;,,>>;;%%68",
"31333411>,%$$$$$$$;>q855<3==$O90rrrr65,,44,,+++#%;==,;;,>,;;#%88",
",<<<13<<,3>;$$%%$$$+>=3<=:=&&%rrdddd000966*;$$==44*-;===,>=;%;==",
",>3133<<,,;>$$%$$$Oo>,11===;%%wwdddd909q65;*##=>4,-*====>,;>%%=%",
">,<<1<<<=>##$+;=;&;>:;>>;;;;&&w9rrhgqq541,+#%%66,,>>,>,>,,%%#+>,",
",><<,,<<>%###+;=*;;=%>>>;;;;&&0qrrhhqq55,,#+#%55,,>>>,>,,3%%++,,",
"31<<13;=+Xo.oo>*1,$%%**%;;>>;;11rrjjaa33;=#+,,888r46453333%%##,1",
"1<<<5,=>oXXo.O%*>,%%%%;%;;1>;:11rrjjaa33=>+#,,888r64643333%%+%,4",
"<<;%%$oXo .oO+$$==668816&&001,;&qr55$$==##++rrr8331111,,55,:$$;>",
"><>$$$.o  oo$O$$;=668811**00,,;&rr55$$==%%+#rrrr11,1,11156>:$$>>",
"  %$$#O+#%$$  %*==88ggyy>>111,rt,3$$==;;==33zhaa<,,,4,11hh64;;##",
" X$$$$OO%;$$  ;%==88agyp>>15,1ry3,$$==;;==34jjaa<1,,,,1,hh54;;#+",
",444**;*;;**oo;;;>66iizz88>>13r8>;==31rr>;11pprr,,,,<,6648==33>>",
"1,44;;**-;**oo;;;;64aizz88;=1,rr;;==,3rr;>53pyrr,3,,,,6488==31,>",
"rr22,>,,;;**%%#.3313rqii>;=>++,,33ri8888>1;;%*1,,><<33ga3,==13,,",
"yy42>,;,;;**%%.#,331rrip;;=>++3,33ir888r,>;>*%,1>,<<33ag11==31,,",
",,,,;:4,;;*%%##.>;==66,,;,344466aazzr83346==$$$$>=>>q9aa13>>,,,,",
",,,,,;,2;;**#%.#;;==66,,;;333366aazz8r3364==$$$$;=>,8qaa31>=,,,,",
":;;;242,,,%*%*#+==%+$$%%>>>;;;q8aaaa64rq33q8%=$$#$%%33>>==%%13>>",
",,:;2444,,*%%%+#=;+##%%%>,;>;>68agad44rq648q==O$%#%%33>>===%31>>",
">>>>>>>>1,%%%%%#==%%=-,1;,&&;;66ii4355qwsaqq==+X%%--,11113==>>->",
">>,;>>>>11==#%%%==%%;=11,;&=;;66ii4443qwaa00==++%%--111131==>>>>",
",,,,>;;;--++oXO+;=,,465411;&=%,16664aazkpp%;$$%%:,->----=-====->",
"4,,,;;;;--#+oo++=;,;64443,&;&;1,6646aakkpp;*$%==,,>---=>--====>;",
"--==;-,;==oXoo%=-=,1333364;*%%,>44rraary;%%%,,ii44:,1,11,,##%%==",
"-==;;;;,==XXXo%%-;1,333154;;*;>,44rraarr;>%$,3ii42,2,11,4,#$%%==",
"+++#==,,==XXoO>>-->,1111,4,4;;;%>>,,%%++Oo%;8r,<>,,,,1222,#$  #%",
"+#+O==>,=%XX+o>>--,>1111414,===;>>,,%=++o+;*q8,<>>:,,,2222%# .##",
"rraa-,98>,%-+#,,;,;>,,11,133==%%;;52tt11$$$$&%;;>>1199,442$$#.44",
"rraa>>8r>,==++,,,;,>,,1,1,33=-%%;,45tr11$$$$&%;;>>2299,,24$$#O94",
"1,1133r898,-$$%%;=;>,,33,1,,%%;;,,41q055$$$O%%%&--11226422$$o#*;",
"111331rr88;,++$#=;>>,>3311,,%%;;,,1,9055$$+%%%;%--1,444642$$.#$;",
"rrrr85,163,,#+#+=%==>>,>>>->%%89,1223311,,%%$$$$%#;>qq64,3=;#$99",
"rrrr881366,,+#+#%;====>,>>>-+%9911523311,,&&$$$$%%>;00543,=%#$99",
"aahg88q866;=$$;;31==-===>,=-=%%*:,2133,,,,>>$$%%+#o+;;,4==*;%%qq",
"haah808q66%;$#==13======>>--%>-%,,1131,,,,;,$$%%%%+%;;4,%;-;%%rr",
"yrggqq64,,#+%%66,,=>,>>,,,%%OO,,,,,2,,,1;;$+$@====;;;;>>;;;;%%qq",
"trghqq46,,++%%66,,,>>,,,,,%%O+,,,;1,,,1,;;+@@$===;;;&;>;;;;;%;q0",
"wrhkaa33;=++,,86re44444333%;++4112,122;; +XO.O==>,%%%%%;;;,,;;1,",
"wrkhaa33=;%+,,898r44453333%%$+,3111,44*;++X.O ==,>%%%;%;;;,>;;11",
"rr64$$;=%###rrrr33<<111,66>,$$;,,,;=$%.O. ..+$$$;%6688,1%;r8>,;&",
"rw66$%&=##+#rywq11<<,,1164>>$%,;,,==%%o.....@+@O=;668833=%88,,==",
"11#$;%;>**35hzsa<<,,1<3,hh36;;+$..%$%+++%&$$  ====06ddyi>>1311rr",
"1,%#*-;:%;3,kkaa<<,,<<,3hh64;>+O..#%++++;%$$  ===;80dgii>>3113ry"
};
