/* XPM */
static char *efeef678709547198f8708caa83e2a70nfigUrPHZRZm0Ivh[] = {
/* columns rows colors chars-per-pixel */
"64 64 193 2 ",
"   c #1F232E",
".  c #1E2234",
"X  c #21252D",
"o  c #24292E",
"O  c #232632",
"+  c #282633",
"@  c #252A34",
"#  c #282C36",
"$  c #22253A",
"%  c #252A3B",
"&  c #2A2D3A",
"*  c #302F3D",
"=  c #2C313D",
"-  c #31333E",
";  c #272C41",
":  c #2A2E43",
">  c #292F49",
",  c #2D3343",
"<  c #2F3841",
"1  c #2D334B",
"2  c #323544",
"3  c #3A3746",
"4  c #333945",
"5  c #32364B",
"6  c #3A374A",
"7  c #343A4C",
"8  c #3A3D4D",
"9  c #323650",
"0  c #393651",
"q  c #353C52",
"w  c #3A3E53",
"e  c #373E5A",
"r  c #3A3E5A",
"t  c #403C4E",
"y  c #413D52",
"u  c #443F5F",
"i  c #37414D",
"p  c #3A414E",
"a  c #3C4354",
"s  c #3F4956",
"d  c #3D445B",
"f  c #3E4461",
"g  c #434355",
"h  c #484556",
"j  c #414856",
"k  c #41465A",
"l  c #49465C",
"z  c #434A5D",
"x  c #4B4C5E",
"c  c #45515F",
"v  c #49515E",
"b  c #404762",
"n  c #484361",
"m  c #454C62",
"M  c #4A4E62",
"N  c #454C6A",
"B  c #484F6B",
"V  c #514F63",
"C  c #465163",
"Z  c #4A5265",
"A  c #4C5965",
"S  c #47516C",
"D  c #4D556A",
"F  c #4E5A6C",
"G  c #525365",
"H  c #51566B",
"J  c #59566C",
"K  c #525A6E",
"L  c #5A5A6E",
"P  c #494F71",
"I  c #4C5472",
"U  c #4E5972",
"Y  c #4F5879",
"T  c #505773",
"R  c #545D72",
"E  c #5A5E71",
"W  c #525B7C",
"Q  c #585F79",
"!  c #615E73",
"~  c #54606E",
"^  c #566175",
"/  c #5A6276",
"(  c #57617A",
")  c #5B657B",
"_  c #5D697D",
"`  c #62667C",
"'  c #6A677E",
"]  c #626A7E",
"[  c #6A697F",
"{  c #545D81",
"}  c #566182",
"|  c #5A6386",
" . c #5E6A81",
".. c #5D668A",
"X. c #5F698B",
"o. c #606781",
"O. c #636D83",
"+. c #686E85",
"@. c #636E8B",
"#. c #706D84",
"$. c #657186",
"%. c #6A7186",
"&. c #66728A",
"*. c #6B758B",
"=. c #6D798E",
"-. c #73748C",
";. c #7A768F",
":. c #727A8E",
">. c #636C93",
",. c #667190",
"<. c #6D7791",
"1. c #6E7A92",
"2. c #6F7C99",
"3. c #717791",
"4. c #7A7593",
"5. c #707A93",
"6. c #727991",
"7. c #727D93",
"8. c #767E91",
"9. c #737A94",
"0. c #727C95",
"q. c #737D96",
"w. c #737F97",
"e. c #737E94",
"r. c #747F95",
"t. c #777F94",
"y. c #747E97",
"u. c #737C94",
"i. c #787E96",
"p. c #757F98",
"a. c #747E98",
"s. c #787F99",
"d. c #6E8096",
"f. c #768196",
"g. c #758196",
"h. c #788397",
"j. c #7A8297",
"k. c #798196",
"l. c #788096",
"z. c #768099",
"x. c #77819A",
"c. c #74809A",
"v. c #75829A",
"b. c #788399",
"n. c #78829B",
"m. c #798498",
"M. c #79839C",
"N. c #7A849D",
"B. c #7B859E",
"V. c #7A869D",
"C. c #7C879D",
"Z. c #7C869F",
"A. c #7B849C",
"S. c #7E899F",
"D. c #7C899C",
"F. c #7787A1",
"G. c #7A86A0",
"H. c #7D87A0",
"J. c #7C86A0",
"K. c #7E88A1",
"L. c #7F8BA5",
"P. c #7F8DA7",
"I. c #7D89A2",
"U. c #7F8FA9",
"Y. c #81879F",
"T. c #818A9F",
"R. c #8087A1",
"E. c #808BA1",
"W. c #808AA3",
"Q. c #818CA2",
"!. c #848BA5",
"~. c #818DA5",
"^. c #818DA7",
"/. c #828DA5",
"(. c #848EA7",
"). c #838CA5",
"_. c #888EA6",
"`. c #828EA8",
"'. c #858FA8",
"]. c #858EA8",
"[. c #888FAB",
"{. c #8190A7",
"}. c #8590A6",
"|. c #8690A9",
" X c #8690AB",
".X c #8691AA",
"XX c #8A93AC",
"oX c #8E99AF",
"OX c #8C96B0",
"+X c #8E99B3",
"@X c #9097B1",
"#X c #929CB5",
"$X c #949EB9",
/* pixels */
"Q.E.S.Z.B.M.b.g.0.5.=.*.*.+.O.o.) K D H , j =.k.k.h.h.h.h.h.h.k.8.:.:.%.%.] ] ] ) L = j Z A F R R R U F F D z a C..X.X.X(.].(.!.",
"K.Z.M.M.b.z.p.7.5.:.*.*.+.O.o.` ) / K Z = / =.-.-.:.k.:.:.:.8.:.:.[ %.[ ] ] ] ~ / / 4 , C z m Z C Z A Z C Z a C P.{.~.~.~.~.E.L.",
"M.M.M.b.y.0.9.:.=.=.*.+.O._ ) ^ R R K z p ] ] / ] d.%.%.g.:.%.[ ] ] ] ] ] ] ~ ! L E a @ a z z z m m C s d a @ ^ {.g.z.Q.R.J.J.Z.",
"p.z.g.0.5.1.*.&.+.O._ _ _ ) / R R K D a Z ] ` A / [ [ [ ] %.] ] ] ] ] / ~ ] ! ~ L K j O % 5 q a a i 7 1 1 . # O.B.z.z.B.B.M.B.<.",
"=.<.*.&.$.$.$. . . ._ ( Z R / R R H Z 7 K ` ` ` ] ] ] ] ] ] ` ` ! ] ` ! ! ! ~ ~ K G g o $ . $ $ . % . % % @ = $.<.v.g.d.0.9.9.*.",
"*.&.&.$.$.O.O. . ._ _ E m D R R K F d 2 L / ~ ) / ` ` ` ` / ` ` ` / ~ L ~ ~ ! ~ G D 2 o @ O O o @ . O O @ # o F <.=.<.<.1.=.*.*.",
"$.&.$.$.$. .O. .) ) _ / R R R R D D < 3 K L / E ~ ! / ` ~ ! ! / ~ ! ~ ~ ~ L L G V h # @ @ # # = = , , , , , @ 4 $.&.<.<.<.<.*.*.",
"+.O.O.O.O. ._ _ _ ) ( / E R K T D z $ g K A K E ~ ! ~ ~ ~ ~ ~ ! ~ ~ L L L G v v Z 4 @ , < < 1 1 i q a a a d 7 o S &.$.*.&.&.&.&.",
"$.$.O. . ._  .) / ( / R R K D D Z < $ g G G G K ~ L K K K L K K ~ ~ L G G M x x l # & 7 7 4 8 a a a a a d s z 4 = } $. .&.$.$.$.",
" . . . ._  .) ) ( ^ R R R K H m 0 @ @ 4 k M G x J / L L L E L L L G G V M x x l 2 # 1 7 7 a a d z z z z z Z m z = d |  .O.$.O.O.",
" . ._ ) ) ) ( / ^ E R R H B a > % @ @ o 4 w h M v G L L G V G M x v v x l k 0 7 # = 7 q a a z z z x m Z D Z D D a = D  ._  . . .",
"_ _ _ _ ( ( / R ~ R F m w 1 > ; # % < , + , w y g x G v x x x x h g g p 8 6 8 - @ 7 p a z z z m Z Z D K F K F K K 4 8 U ( _ O. .",
") ) ^ / ^ R R / R k q 1 > > ; & < a a a a = & 6 8 w k k g w y 0 8 8 7 5 2 & & o & 8 a d z c Z Z F R R K ^ ^ ^ ^ ^ F = f R ) ^ _ ",
") ^ ^ / / ( R m e 5 1 1 1 & & 8 d z m Z D Z a # & 6 6 6 7 8 7 2 2 & & # & & O @ , a z m Z D K K ^ / / ) _ ) ) _ _ _ z , b U / / ",
") O._ ) D f 9 1 1 1 1 > # = w k z Z H R R / ) H 2 @ & & # @ @ # = , 4 7 q q 2 @ 7 s m Z D R Z ^ ] _ O.@.$.$.$.$.$. . .< 9 f F R ",
"F  .U i 9 9 9 9 5 1 : @ , a z z Z K K ) O.O.] O.] z # @ O & < 7 8 w a a w j 4 @ a C Z F L / ) _ +.%.&.*.=.*.=.=.*.*.$.F = d d F ",
"U ^ d > ; 1 5 > 1 % # , a s C Z R ^ / O.=.=.=.*.*./ d & # , 7 w a d k a a m 7 & z Z H R / ` o.*.*.*.1.7.:.g.7.y.:.:.*.$.a , r d ",
"m F 9 1 > 5 5 > @ @ , 7 d z Z R / _ O.$.=.B.M.b.y._ m 5 @ 8 a a k z M m z Z 4 % z H E / _ ] *.*.=.7.g.g.M.M.M.M.v.v.0.&. .= 9 9 ",
"1 q 5 1 1 , + O @ # a z s Z F / ) $.*.=.5.p.J.W.J._ B 7 = a a z m Z Z H D D 4 = z Z E o.O.*.=.1.g.b.B.K.J.K.G.L.E.S.0.1.=.a @ 9 ",
"1 1 1 1 % o = 7 @ $ a m d C F ( o.*.=.g.B.B.B.J.v. .B 1 = d z m Z D H R R Z = = a m Z K O.*.0.z.l.Z.E.~.(..X.X.X~.J.g.*.W I , & ",
"> : + # a R *.=.s   < a z Z F ^  .O.<.1.v.F.c.1.*.) N < 4 z z M H K E R A k & & 9 d m A R ) *.z.b.E..XXXXXOXXX.XG.2.X.W I D f o ",
"X & Z =.W.].E.J.O.= % 8 d C F )  .&.1.c.v.v.v.c.<.W S 1 7 z z B Z Z D m d 7 @ O & 1 d b F )  .&.y.Z.~..X.X{.L.2.,. .} W W U w O ",
"K M.+X@X[.W.B.i.0.Z + , 5 d b S U ( X.,.2.,.,...Y Y S # 5 a d a d d d k 7 O . & % # < f b S (  .*.0.G.U.v.2.&...} Y | W W m X @ ",
"#X#XXX|.W.K.j.9.7._ , O = 1 q d f I Y | ..X...{ I f < O : 1 5 q d q d 2 . & , 5 7 7 = % w N S D / @.1.F.F.| ..X.| Y | { a X j 1.",
"+XXX'.~.K.B.y.:.*.+.z O # O @ @ = = < 7 a 8 4 & @ o o @ @ & : & , & @ o % , 7 i s a a , @ 4 m I I U W @.1...X.X.X.X.Y < 7 &.+X$X",
"B.S.~.B.z.z.5.*.+.] K = O @ # # % # % @ @ % @ & & & & # % @ @ o O @ @ % , 7 d s d a q 1 O X X 7 B W { { X.X.X.>...f = L U.+XOXXX",
"B.B.Z.g.g.=.*.$.] ) K 8 O = < 1 7 1 7 7 8 7 7 7 7 1 , , , ; & $   @ @ % < a a a q w , @ & Z C O O 5 m W } | ^ b = # &.U.'.{.{..X",
"Z.B.g.7.*.$.O.) ) R K i & 1 8 8 i a 8 a q w a q 8 7 8 1 < , , % % . @ # 7 1 q q 7 % = A 1.G.F.&.- X o = 5 , # =   a G.B.v.V.C.K.",
"5.7.=.&.$.O. .) ^ R D 4 , q p a a a a k a a a a a q 8 7 7 1 , , = % O @ ; 1 1 # @ z *.v.v.M.~.G.*.= O @ = a Z / C a g.g.z.v.0.w.",
"*.*.&.$.O._ ) ) R R Z , 4 a a k d s z a z Z M z z z k j a 8 5 < , & $ @ @ &   i  .v.v.C.7.0.XX(.F.F   < z D ) &._ s 1.0.1.1.1.1.",
"*.$.$.O. .) ( R R D z = w k z z D Z C a D K H H D Z m z d d a 8 < : O @ O = K <.1.z.v.K.R.~.{.XX{.1.= 8 c Z O.z.&.j $.1.] ) *.*.",
"O.O. ._ _ / Q R K Z a = a m D D F K K K E R R R K K D D Z z k a 7 ; O o a  .=.1.y.i.J.J.E.]..XXXOXG.c = S / *.G.0.a O.*.O._ $.@.",
"o.o._ ( / E R R K C 4 & k z Z R E Q Q ) ` ` ` Q / R R K D Z z a < .   i O.*.*.=.p.M.Z.J.W.]..X|.XXXX$.4 m ) =.G.1.i _ $.$.&.$.O.",
"_ ) ) ^ R R Z m z a , = z m z D R ` o.o.` o.o.o.` ` / R K D k 5 = . < ) $.&.1.1.9.M.Z.J.(.].[.XXXX#XG.s a ^ O.d.( , ^  ._  .o._ ",
"/ / ^ L R D m a a a @ 2 m Z Z C H R ) #.+.O.*.+.O.O.] ] K h 7 % . & U $.$.*.=.9.p.M.J.R.E.(.].XXOX@X[. .4 N I Q d = F R ) ) ) ) ",
"R R F D m k a a 7 ; @ 4 b C D D D D R ) ` #.9.3.-.*.o.D z a , % @ A $. .&.&.=.0.p.M.Z.R.W.]..XXXXXXXOX1.a 5 d f 1 # m D D L / / ",
"D Z z s a s a 1 ; $ @ , b m Z F R R H R Q / o.+.+.) M b q < > @ a  . .+.&.*.*.0.s.B.Y.J.E.!.[.[.XXXX@XJ.R # , , 7 = 9 m C C Z F ",
"z k d d a 1 % % @ # @ o 7 m m S H R R R R R / / E H M w 1 1 $ 4 ) _  .O.&.*.=.0.s.s.B.R.E.!.!._.|.XX@X_.&.4 = z / $.a 7 z b z Z ",
"s a 8 , % % @ = 7 a a 7 # 2 b S N S R Q / R K / ) b q 5 7 , & H ) _  .O.$.$.*.0.i.B.s.J.R.R.!.!.[.[.XXXX=.Z < K / &.*.7 1 a s s ",
"1 : ; ; # @ , a a a z C C 7 , z I B m N U E R / D 9 9 q 1 @ m Q ^ ) _ O./ O.*.=.y.i.s.j.B.Y.Y.!.!.(._.XXp.) 1 m ^ _ 1.) , 1 7 8 ",
"% % O X o # a z a a A D Z K m 4 w B P B N N B K N e w 9 # a R R R ) _ _ o.$.%.*.:.5.y.i.s.B.Y.Y.E.!.!.|.O._ s a F _  .<.C $ , ; ",
"O , a D z @ 8 Z C D U U R R R R j 7 b D B N b B f d q @ 2 D D T R / ( ) o.O.O.%.*.=.9.y.i.b.B.B.A.R.!.!.O._ F 1 C F ^ ( R , @ $ ",
"A o.g.M.=.K = d F R / / _ _ ) ) ) F p 7 b P m m f w # = Z D D R R R ) ) _ o.o.+.+.*.-.:.9.9.g.z.j.Y.E.9.$.o.( , a z D D b d o = ",
"1.b.E.Y.A.z.^ = m R o.*.*.*.=.*.$.O./ c 2 5 f f 7 O o j Z Z D Z Z R R E / _  .o.o.+.*.=.:.5.u.z.i.3.O.O.$.) ) 7 % a a 9 9 < z ^ ",
"t.i.j.+.%.T.M.~ , B ) *.i.B.b.y.0.5.%.O.R 8 @ a ^ &.4 a Z m D z z H R R E / ) ) _ o.$.%.*.=.*.$. .) O.g.$.( ( d @ % % , a F O.*.",
":.9.y.9.*.Y.Y.v.A 1 S  .5.J.j.<.T.B.1.&.^ a 4 o.*.d.F 4 C c C Z D D T R R ^ ^ ( ) _  . .] / ( )  .o.O._ $.) D f # @ 5 M / _ +.*.",
"%.=.5.u.p.b.M.B.2.j 8 B  .y.1. .O./ I f e , a R ) $.^ 8 m m m C Z D D D R R R R R ^ ^ R R / / ) ^ R D D ^ R f a @ 7 Z R / ] o.+.",
"@.#.*.=.9.0.g.z.9.@.< r N  .&.N f f f e 9 + # z Z K F a z z m C m Z Z D D H K H K K U F C S A m m b b f z f f = # a Z D R / ) o.",
"` O.+.*.=.1.&.$.&.1.K & b P Y N N f 9 , 1 c z p 7 a C p a m s z z Z N Z Z D D D Z C m b w f b f f d d f d f q O 4 z s m K R / _ ",
"/  .o.O.O.O.O.$.$.*. .= = q r q 7 8 z / =.C.(.K.&.s , 2 7 m z a a C m m m b k a f f d d d d d k f f d d q < & @ 7 a 8 d D D R R ",
"R R / ) )  . .O.$.$.} a   & < w Z ^  .&.*.g.C.(.oX{.R # O a a 7 q 8 q q q e w d r f d d f d a r 8 5 < , = = o O < a 7 z B Z S K ",
"R R Q / ) ) _  . . .( 7 # a d m Z F (  .&.:.g.J.Q.XXOX1.8 . , 5 1 5 7 9 5 q 5 6 7 5 < , , = # & = 4 p d x K a X $ 9 a z B Z Z D ",
"D W R ^ ( ) ) ) ) ( U , , i 7 a C D K ^ _ &.=.g.B.K.Q.{.v.Z o & & & & & * * * 3 2 - 2 * - # # 4 7 a C D R ^ _ i   ; 8 a z m Z D ",
"Z D D F U R ^ ^ ^ ^ m = 4 7 < a c A F ^ / _ &.d.g.M.B.B.B.v.F O @ # * 2 t t t y g y h y t 3 & 7 w q Z ^ _ O.@.O., . $ 1 8 a z z ",
"a a z m m m d d a a a & ; 7 a a d C Z R ^ / _ &.*.0.7.g.0.g.*.F + * 3 t t h x l V V V V l 6 & q z Z R _ $.=.=.w._ O $ @ % ; < 9 ",
"; > 5 5 5 9 9 9 e 9 1 $ $ ; , 8 d z C A F ^ / ) _ $.$.*.*.*.$._ 3 2 t g x J J L ! ! ! J J g & 8 z Z ^ _ &.1.0.d.d.s O & $ $ % % ",
"@ @ @ % $ & % % $ O @ O + $ % , 5 q d C A F K R ) ( ) _ _ _ _ ( 3 3 l V ! ! ! #.' ' ' ! ! y # , a d S U ( X.,.&...I O o = = & # ",
"$.] ) R K Z x j a 7 4 = = @ $ $ & 1 1 8 d d m m ~ ^ ~ ^ ~ ~ F s & 6 h V J ' #.-.4.4.-.' n 6 O X % 5 9 a f N f b f 1 4 _ 1.c.1.*.",
"#X+XOXXXXX{.W.J.v.0.=.$._ R A s , @ : < 1 9 q q d d d d a 9 7 > & 6 y l V J ! ' #.#.#.l 0 & 2 D _ &.) i o # C Z O s P.OX#X$X$X+X",
"#X+XoXXXXX|.[.(.Q.T.Z.j.g.9.*.%.^ a O @ & = , 9 5 > > > ; > = # o X & 2 y n V J E ! l r 3 w y.XX+X+XoXP.( - F $.= $.#X$X$X$X$X#X",
"XXXXXXXXXX_.!.R.Y.B.b.i.y.:.` *.%.) v # o # o o . = i i j v A ~ ~ v j i 3 2 2 0 l n u 5 7 *.C.S.~.~.S.Q.I.*.s # < F.#X+X#X+X.XoX",
"XXXX.X.X!.W.R.J.Y.s.b.g.7.:.*.#.$._ _ m o o o p ^ ] =.g.D.D.D.D.m.h.k.:.+./ M 8 2 2 2 & ) =.1.y.g.M.M.g.:.&. .4 s .X#X+X+X}.:.T.",
"XX|.~.W.E.R.S.M.i.b.u.5.=.*.*.+.$.` ) K i X i d.T.T.P.Q.T.}.}.T.[ f.j.k.k.:.*.[ ~ 4   c ) ) $.&.%.O.&.$. .( / a ( OXXXoXXXXXA.(.",
"(.W.W.E.Y.Z.M.l.u.y.5.3.*.*.+.O._ K L L 8 o ) h.D.D.D.D.D.D.D.m.] [ k.:.*.%.%.] ] A # Z F ^ / ) _ D ^ / ^ ~ F i =.XXXXXXXX|.|.}."
};
