/* XPM */
static char *fbef977d5c1e411a9e7a243544962365XfBmXjhGLib4wycd[] = {
/* columns rows colors chars-per-pixel */
"64 64 59 1 ",
"  c #06150F",
". c #071811",
"X c #091D14",
"o c gray9",
"O c #191717",
"+ c #111C17",
"@ c #151E1A",
"# c #1D1B1B",
"$ c #211E1E",
"% c #092217",
"& c #0B2519",
"* c #0B281C",
"= c #14241D",
"- c #1C221E",
"; c #211F20",
": c #0D2E20",
"> c #1C2420",
", c #152A21",
"< c #1A2922",
"1 c #0E3222",
"2 c #113625",
"3 c #103927",
"4 c #193328",
"5 c #123D2A",
"6 c #19392B",
"7 c #252323",
"8 c #292626",
"9 c #222926",
"0 c #282728",
"q c #232E29",
"w c #2C2B2B",
"e c #322E2E",
"r c #22352C",
"t c #2B322E",
"y c #30302F",
"u c #2C3531",
"i c #333232",
"p c #303935",
"a c #383837",
"s c #353C39",
"d c #3B3B3B",
"f c #423D3D",
"g c #13432E",
"h c #144731",
"j c #164B34",
"k c #1A563C",
"l c #1A5A3E",
"z c #3C423F",
"x c #1B5C40",
"c c #1D6445",
"v c #20714E",
"b c #434242",
"n c #494444",
"m c #464847",
"M c #4D4C4C",
"N c #4F504F",
"B c #545454",
"V c #5F5E5E",
"C c #606060",
/* pixels */
"0088eybb00iinnnbewwwwiaiaa;8ieeweeei00778778#O0000aaMmVVaa00ywff",
"0w78eebdwwiennbbtwwwwwaida;0eeeweeii;877897>##8800aiMMVVaaw0yyff",
"iimmdaddwe;e;;wewwtwiiNNww8;iewwnniyywww0w77;;$#yiuibfmm0007$$iw",
"iumbddddwww;0;0e0wewiuNBee88eewynnyiwww000777;##yyeifbmM0000##yy",
"MMCCdfiiia88;;;;88wwafMMee8wwewwywww00iy0087$$#$8077aaww8eeeeiai",
"MMCCddiiia;;;;;;88w0afMMeewwwwwywwww0wyy0078;$$$0w87uawew8ifiiaa",
"MNNNaizdiidd8;$$$$77ey8w88;;eew00w00iiywww;777#;77$$;;;78ew888af",
"NNNNaazdiiff;;$$$$77eyww8;8;eeww0w00iiuiww77;7$#87$$;;7;8888w8aa",
"mmiiaibdMNfd77##$$08ewqqee770w0www0ww0wwww77;;;;77;708yye88;w8aa",
"mmaiiidbMMdf70$#$$88t=**ye77w0w0www0ww0wwy77;;;;777;80ey8e;;w8ii",
"aaipNMBBnn78;;;;www<%%&24w877700uwww008w00###O#;07wwiaiiee8877ie",
"aaiiNMBBMM77;;;8ww4:&%*g5q77878wwuww0w8800##O###70wwiiiiee8877ew",
"yibbMMnm88;7eenmr53:3*&2lk$$7;7700;8w88w07#oO#7>00wwyiyyii8877w0",
"iifbMMnn087;ewz633jjg3&&kl-$$787008;88w888O#oo;700wtiiyyii8777ww",
"00ww77O###77dq&:3gclg52%:q@$OO$$#;##80ww77OO##ww00wwiwwiiyei8700",
"0www;;####07&X&2ggkck5g**<=:OO$-;;##8;ww70O###0w000wwiuwyyiu8877",
"wwiinnee;;;$X&355jcccg:*:121=#iibfMNwwddww;8$$ww0wwwwwyywtii;;;;",
"00eifnee;7;;=gggxcck2:::153:&#iizbNM08ddww8;$$wwwqw0wtyyyyyi00;8",
"wwieaaii7##&*53jvcj2121%*22*&@98wwyyuidzddw8$$$$7000w0iiwwww;8ww",
"weiiafii#-#=*&::lxh3123**12:@o78wyyyyizfad8;$$$$90w0wwiiwywy8;88",
"uwiieieeww--X.&X&lj:*111*::&%@idbbzbaawwiiwy$$$$777700www888$$ff",
"wwiieiyytw7>@+;X.4&&**:1*&&%@7adfbzbaawyiaww$;$#7707w0w00w8e$$fi",
"ywywiiwwww0w;;;#$;*==**&X&&77>udNNBNddddia78;;8;yy000778ew8888$;",
"w0yyiiwwwww0#;--$$$$w=y=%>77;>idNNNBddddaa77;;88yi777777ww88;;8;",
"wwywy0i000;;#;;7778888ww8888;8ffbbBBzfiiew$$$$aiwww8wwwwee$7$$8w",
"wwyww0yy00;#;;77878w80w888888;fabbBBdziae8$$$$aiwy8w8wwwew7$$$ww",
"yywwii00##ooO#;0ww7$;77788ee88eebdBBMMii88$$8wddzdaiiayyey77$$ee",
"yyyuii00##oo#O0;ww$7>>77w8e888wefbBBMNii88$$wwadzdiiaiiiey77$$ey",
"ww00;;o#oooo;##;88iaddyy;8ddww;8fnai;;00;;$$bbdfiyywtewyai8w$;ww",
"ww00;;oooooo#;;;98aiaayy78ddee8;ffif;;0;;;$$bbbfeytwwiuwiaww$$w0",
"#o;;;###;7;;oo>079aaBNmn0wiywennee;;8;00;8iiBBMMwywyywyeBBii88#$",
"oo;;;;##00;;oo0;78aaNBmmw0iywenfei;;;;w;8;iiBBMMyyw0weeyBBii8w##",
"eiii70>77877O#0800aaMMVVaa0wewffw800wibb8weenMfbwwwwywaaaa88eeew",
"eeey77077877##0800iimmVVaaw0eeffww;0iwbfw8einnbbwywwweiaaa;8eiew",
"bbiiwwww00777$##iyeiffMM0087#$eeeinnaaddwe88;8ewwwtyeiBNww;8ieww",
"bnyawww00078;7#Oyyiizbnm0078#$eeeinmddddee888;wywwwweeNNwy8;eeww",
"wwwy0wyyww77$;$$0w07aaeww0aeiiaiMMCCddiiia;;$$$$00w0ddMMee8wewww",
"wwwww0yy00777$#$w007efwww9eaeiaaMMCCzdiiii88$$$$00w0ddMMiewweeww",
"w000iiyiww7>7;#$77#;$78$8ew80wsaNNNNdidbiidf;;$$;;;8eiww;8;;ie8w",
"0ww0iiyuww7777$#87#;$$$$e88e00daNNMBiizdiidf8;$$;;;;ii8w8;8;eew8",
"wwww00wwww77;;;777;>88iwww7788iamMiiiibdMNss8;;$$$88ewtyie;8ww88",
",,000ww0ww77;;;7777788wi8w$78waammiiiidbMMss8;;$$$80weytei8;w808",
",,yw000000###o##800wiiiiet8887ewiiiiMmBBMm77;;;;ew00000080;888w0",
":XX:=,0000#;o###78wwaiiiye8877weddiiBzBBmm0;;;0;eww000008w8877w0",
"**&&=@0w8;#O##>;00wyiyyyii78;7weiibbMmmb00;;awmmyi99&&%Xww$->;77",
"%X::hh&w80##o#;>00wyiyyyii0077w8iibbMMbb00;;ewbmyy99&*XXtw$#7799",
"&%::hh&&;7#o##0w00y0yyytyyee7878wwww;;####;;fdwwww==1*hh&&;;OO--",
"&&&:::&:0;oo##w0000ywyywyeie8788w0ww77####;wiawi0w,=,*hj&*;;OO>-",
"&%**:1**ww77##ww00wwwwyywwii88$888iinnwe7;;$>>00==*&**:1**$$..ut",
"*********&78$$ew00wqwwyutwyi88$$eeiifnew$;$$7708==&&**1:**$-..ii",
"*****&**&&00$$$$0000wwiiywwy$8888eeiaaia$;$#;;XX11********&&##90",
"%%****&&&&&&$$$$0000wwiiwyww8;88e8ieaaia;$#$;8XX11&***&***&&$#88",
"%%*****&&&&&#$$#8000w0ww0088;;faweiiieywew;7#>XX%%%&****&&&&&&aa",
"%*%*&*&&%%ww$#$$;;;00wwwq08w$;adweiiiiyywe;7>#XX%%%%*&**&&&&&&aa",
"*%**&&&*%%87;$77yy;0;8;8yw88;887wwwwuiwyww90XX..&&&&&&&*&*%%++zz",
"***%**%%ai88$;77ii808;0;yw888;;8wwyiiiywww0wXX..&&&&&*&&&&%%++zf",
"**&***++wy#$$$iawww0wwww8e;8$#ewwwwwwwwu00;>XX..*&***&**%%++77dd",
"&&%%uuiayw$#$$aawe0wwwewee8;#;ww0wywwwyi00##%X..****&&**%&o+;8fd",
"&*&&asei88$$wwdaddsiiiiwee;;$#eiywwyiw00##@@##.X&&&&%%7700ew88we",
"zbBBMMie88$#wwadzdiiiaiiii;;#$ieyiiyii00##@=#OX.&&&*%%7700we88ww",
"fzia$$88$$$$nbdzwuwiwwwyiiw8;;w8ww00;;o#oocc;#;#..  daei=#tyee77",
"fbai$$;8$$$$bbzfyywwyytwaa8w;;wwyw00;7oooocc#-#;..  adiw@=tyew77",
"ei$$888888ieBBMMyyy0wyyyBBii8w##oo;;#;##77;;oo7977paMBmn0wyyeenf",
"ee$$$88877iaBBMMyy0yiwyiBB<7w;;;oo;;###-77;>oo7700aaBNmmw0eeeefn"
};
