/* XPM */
static char *_6152ad856f14ecbbfb5eb30864333df8KnnE062g6CDDwK7[] = {
/* columns rows colors chars-per-pixel */
"64 64 210 2 ",
"   c #030101",
".  c #0B0402",
"X  c #0E0906",
"o  c #050609",
"O  c #090708",
"+  c #07080A",
"@  c #0C0B0A",
"#  c #120501",
"$  c #1A0700",
"%  c #140B05",
"&  c #1B0C04",
"*  c #130E0A",
"=  c #1B0E09",
"-  c #1E1007",
";  c #15110D",
":  c #1B120C",
">  c #110F10",
",  c #0C1011",
"<  c #111111",
"1  c #101010",
"2  c gray7",
"3  c #171310",
"4  c #141213",
"5  c #171312",
"6  c #151212",
"7  c #151412",
"8  c #161513",
"9  c #151315",
"0  c gray9",
"q  c #161616",
"w  c #151516",
"e  c #191312",
"r  c #191410",
"t  c #181411",
"y  c #1A1511",
"u  c #191512",
"i  c #181413",
"p  c #1A1613",
"a  c #1B1612",
"s  c #1A1611",
"d  c #1D1610",
"f  c #1C1713",
"g  c #1B1714",
"h  c #181617",
"j  c #181715",
"k  c #1E1511",
"l  c #1A1813",
"z  c #1E1913",
"x  c #191816",
"c  c #191917",
"v  c #1B1A16",
"b  c #1C1815",
"n  c #1E1915",
"m  c #1D1916",
"M  c #1C1817",
"N  c #1F1A17",
"B  c #1D1A15",
"V  c #1F1C17",
"C  c #1C1C14",
"Z  c #1E1811",
"A  c #161618",
"S  c #191718",
"D  c #141819",
"F  c #1A1819",
"G  c #1B1A18",
"H  c #191919",
"J  c #230D02",
"K  c #2A0E01",
"L  c #231105",
"P  c #2C1204",
"I  c #23130B",
"U  c #2B150A",
"Y  c #26180F",
"T  c #2C190D",
"R  c #341403",
"E  c #3A1503",
"W  c #361805",
"Q  c #3C1A05",
"!  c #32160A",
"~  c #341A0C",
"^  c #3B1C0B",
"/  c #231611",
"(  c #291710",
")  c #221912",
"_  c #211A14",
"`  c #211A16",
"'  c #241A13",
"]  c #2B1B13",
"[  c #241C18",
"{  c #281D19",
"}  c #301710",
"|  c #341D12",
" . c #3B1E11",
".. c #3D200E",
"X. c #2C2119",
"o. c #352013",
"O. c #3C2113",
"+. c #431701",
"@. c #431B04",
"#. c #4B1D04",
"$. c #431D0A",
"%. c #4A1E0A",
"&. c #521E02",
"*. c #581F03",
"=. c #4D2105",
"-. c #44210D",
";. c #4C220B",
":. c #542205",
">. c #5C2405",
",. c #5E2905",
"<. c #53240B",
"1. c #5B260A",
"2. c #54290D",
"3. c #5C2A0C",
"4. c #432312",
"5. c #4B2512",
"6. c #4C2A14",
"7. c #462B16",
"8. c #522611",
"9. c #542911",
"0. c #5C2B11",
"q. c #5D3112",
"w. c #632604",
"e. c #692704",
"r. c #652906",
"t. c #6B2B05",
"y. c #63270A",
"u. c #642B0B",
"i. c #6C2E0A",
"p. c #732D05",
"a. c #792E06",
"s. c #732F0B",
"d. c #792F09",
"f. c #6B3207",
"g. c #66300D",
"h. c #6D310C",
"j. c #753106",
"k. c #7B3306",
"l. c #74320B",
"z. c #7C340B",
"x. c #763A0E",
"c. c #7D390D",
"v. c #632D11",
"b. c #6B2F10",
"n. c #633212",
"m. c #6A3211",
"M. c #663916",
"N. c #6A3813",
"B. c #63341A",
"V. c #763511",
"C. c #7B3511",
"Z. c #753E15",
"A. c #7C3B11",
"S. c #784216",
"D. c #833506",
"F. c #843907",
"G. c #8C3A05",
"H. c #82360B",
"J. c #883708",
"K. c #843A0B",
"L. c #8B3B0B",
"P. c #893506",
"I. c #933D06",
"U. c #993F0A",
"Y. c #913E0C",
"T. c #803611",
"R. c #843B11",
"E. c #8F4007",
"W. c #85410E",
"Q. c #8C420D",
"!. c #964406",
"~. c #9B4306",
"^. c #94420C",
"/. c #9A440B",
"(. c #95490D",
"). c #9B4A0C",
"_. c #8C4312",
"`. c #854917",
"'. c #8F4915",
"]. c #864316",
"[. c #914511",
"{. c #9A4210",
"}. c #974910",
"|. c #9B4D11",
" X c #984C18",
".X c #9B5416",
"XX c #A34C0B",
"oX c #A6510E",
"OX c #AC530D",
"+X c #A95205",
"@X c #B45207",
"#X c #B45805",
"$X c #B2570E",
"%X c #B55B0E",
"&X c #BB5A0B",
"*X c #AA5311",
"=X c #A35A13",
"-X c #A3571D",
";X c #A65818",
":X c #BB5E11",
">X c #AC611E",
",X c #B76615",
"<X c #B96819",
"1X c #BD6315",
"2X c #B46520",
"3X c #C8670E",
"4X c #C26512",
"5X c #CC6D11",
"6X c #C66F20",
"7X c #CC7C22",
/* pixels */
"  o D   x.X.+   w @   , <   @ A   o D     H +   w @   , <   @ 8   O D o   D O   q @   , <   @ H   O D     D O   w @   , <   @ A ",
"  o h   L { o   H @   8 6   @ q   + v     H O   q @   q 2   , D   O H     c O   H @   w 4   @ D   o H   o H O   H @   < q   @ S ",
"@ ; X @ + + @ @ + @ @ + @ * + @ @ @ @ @ @ + @ @ X X @ + X X @ O @ O X @ @ X X @ X @ @ @ + @ X X @ X @ @ @ + @ @ + @ @ X @ @ @ + ",
"q ) W , 8   * H   O H o   m +   h 1   t 8   * H   O m o o m O   D ;   2 7   1 D   O G   o v O   c 1   2 q   * h   + H o o G +   ",
"t * % ; 6   ; : . X l O . h % o t *   > > . * t o X r O O r @ O 8 * o ; ; o X 8 O X 6 X O 8 % o 8 *   ; ;   * 6 o X 8 . . t *   ",
"  X 8 . . f * . t ;   ; ;   ; t   X m . . m X   t ;   ; ;   * t   X t . O v X   t *   ; ;   * t o X t O O m X   t *   ; ;   * b ",
"  * 7.  . m .   h ;   ; 8   @ m   X m . . v O   l *   8 r   * h   X Z o . m X   v *   6 r   * v   X v . . m X . f *   6 8   * m ",
"T * = * : * q.; X @ ; I X ; T % * * @ * * X * ; X * ; X * * @ % * * O ; ; X * * X * * % @ * @ % ; * X * * X * * X * ; X * * @ X ",
") ;   8 ]   M.X.  % ` X . H U . v ;   t t   ; Z   X V . . V X . m ; . t t   ; ` . X V . . m X   Z *   t :   ; m   % ` . . c %   ",
": * O ; ; . : : X % r % X r @ . t * . ; ; . * ; X * : X X ; * . ; * . ; ; . ; ; . * : X X r * . r ; . ; ; . ; : . * 8 % X t X X ",
". * Z # X ` % . f : . ; : . = ` . % m # % m % . Z * . ; ; . = m . * m # X b % . Z * . ; t . ; l . * m % X m * . Z * . t : o : Z ",
"# I m % X ` % . ) ; . f f . ; f . % _ X # V * . ' ; . Z : . ; ) . % ` X X [ % . m ; . Z I . ; ) . % ) . X [ % . ` : . : d . % [ ",
": : % : ; % = : % ; ; % % : I % : : % ; ; % = : % = : % * : * % ; : % : ; % : : % ; : * % : ; % ; : % = : % : ; % : : % % : ; % ",
"' ;   Z / . ; X.. % { % # { % . [ : . : ) . ; [ . * [ X # ' * . ` : . ) : . ; { . % [ # . X.% . ' ; . Z : . : ) . % X.% X ] & o ",
": I U : : O -.5.. : : = = : - = : = % : : % : : % * : % % f * % : : % : ; % = : % = f % % / ; % f - % ; : X ; f % % f % % | U O ",
"% % o.% % z P & f - . I f . I ' . = ' % # ` * # I : # ) / . - ) # % ) % & ) * # ) = . I l . : I # * ' # % ] % # ) - . d : . : ) ",
". - O.;.X Y : X ( : # ) Y # - ' # = ' % $ ' = # ) I # ) / # I Y # * ' & % ' % # ) - # / / # = / # = ' % # ' = # ( : J I : # : ) ",
": U U ;.: & - - % L ( % % I = & I - & : I % = I % I I % % / = & I = & : I = - I % : I % & f = & I : % - = = - f % = / % U f * & ",
"' : # I ( # I X.& % ] $ & { = # ] f # ( ' . / ' # % ] # & ] % # { I # / ( # : ] # = ] # # ] & # ] / # ( ` # : ] # % ] & J ' = # ",
"I - = I I % I I J = Y = J I I = : I & I L = L I = - I = = I I = I = & - I % I I = J Y = = I I $ I L % = I & L I = J U = & / J & ",
"& - T & & ( - & ) Y # I Y # - X.L % ] & & ' J % ] I # ( ( $ I ( % L ' = & ' = $ ( I $ ( ( # I ( % = ] % $ ] = & ( I # ( / # L ] ",
"& - ] u.= ] L $ ( I K Y Y & -.o.W = ( & & ] U $ ( I $ ( ( % I ' $ L ' J & ] L & ) I % ( ( % I ' & L ( & & ] = & ' I $ / Y $ I ' ",
"Y I & x.~ & I ( J = n.W & Y ;.P I L & ( L & 8.T & L ( J & ( I & ( I & U U & L ( & I Y J J ' L J ( I & ( I = I ( J U ( = J ( I & ",
"| I $ ] | # I ] & I ] J & ( & & ] ( $ ] | & T | & I ] & = ] J $ ] U $ ' ] $ Y ] $ L ] & & ] L & ' U $ ( ] $ L 6.:.2./ L & ] L $ ",
"-.I L I I U ! U L L Y I U $.U ^ I I I L ! ~ - U L L U I L U I L I L L I I I I U J L I I L L J L Y L J I L L L U Q ~ L L I L I L ",
"& L ] J J o.^ & X.U & Y N.r.-.o.& U ] J L X.I & T Y & T T & Y | J I ] L J ] L $ ] U J ( ] & Y ] J I ] J L ] W W ' L & T | $ Y | ",
"J L o.L L ] I J T Y J Y 9.L T T J L ] L = ~ U J | U & ] ] J U ] J I | L L ] U J | Y $ Y ] J Y | J L | I I ' <.=.( Y J Y Y J Y | ",
"] Y J ~ T J U T J ! T @.P ( L L | Y J ^ 9.& U ] L U ~ L L ] U L ( U J ( ( J U ] J L 5.~ J | L L } ( J ( ( J U ] J U ] K P ] L J ",
"| ! P ..T J U | K 2.| R J 5.W &  .^ & ~ -.J P | J P O.L L ~ L J | Y J T | J ! ] J L 4.K J | P J | U J ! ~ J Y | J U ) x.1.T U & ",
"U U $.W P U Q ~ ~ P T U U ;.$.^ ).^ U U P U U U P U U U U T T U U R U ! ! ! ! ~ ! Y U U U U U U U T U U U U U P P U U ].~ U U P ",
"K P 7.! L | 3.Q ] ! J  .~ J U q.u.L o.P P o.U K o.~ J ~ ~ J ! o.K P | P P O.! R ^ ^ K | | J ! | J K | P P o.! J  .! K ~ ! J T | ",
"P ! | P W n.W P  .! K ~ ~ P U T E ^ | P P | U P | ~ P ~ ~ U ! ~ K ! 4.R !  .E E 4.^ K ~ ~ K ! | P !  .U P ~ P W O.T P ~ ~ P ~ | ",
"..! P ~ ~ Q ~ ~ R W  .K U | W L 2.m.J ~ | K T  .K ! | U P | ! K | -.Q ~ ..R ..-.E !  .P P o.U K  .} P ~ | K U Z.$.P  .U K  .~ K ",
"4.~ K ^ ^ J ^ -.R ~  .! R  .! P | $.K  . .K ~  .K ! ^ R R  .! K | ! K ^ ^ E $.4.E W O.P R O.R K  .! K  .^ K ! 8.P U  .K P  .! K ",
"! ~ ~ ~ T $.Q ! W W ^ ^ ^ ~ E ! ~ ~ ~ ^ W ^ W $.^ ~ ~ W ~ W ~ ~ ~ ~ W ~ 2.,.W $.$.W ^ W ~ ~ W $.~ W ! -.W ~ ~ ! ~ ~ ~ ^ ~ U 2.;.",
"K ~ O.P P n.S.E 4.<.+.$.^ E ~ S.&.! 5.+.Q O.W E 4.$.E  .-.K ~ $.K ~ 4.E =.>X@.Q 5.$.E -.-.R ^ -.E ^ 4.E R O.W P  .W R ;. .K $.4.",
"R W  .~ E 4.K.:.! Z.=X;.2.@.W S.x.R 0.;.~ -.@.Q -.$.Q ^ ^ W ~  .! W ..@.W S.1.@.2.<.^ ..-.K.^ N.z.Q ;.Q W O.! W  .W R  . .R |  .",
"-.~ R ^ -.t.).5.Q h.5X:.=.;.-.@.3.^ Q ;.-.Q $.;.E W.n.W ^  .W R ^ ^ E -.-.E %.2.t.x.;.@.Q q.+.(.0.$.Q $. .E Q O.E ~ O.E E  .W R ",
"4.^ R $.4.+.7XM.&.y.Z.@.1.m.@.+.;.%.E -.-.+.-.8.+.u.n.E E 4.W R 4.^ E 4.-.+.;.2.>.:.9.#.#.5.$.E q.x.E -.-.E ^ -.E W 4.E E -.Q R ",
"Q ^ 3.#.^ !  XV.@.2.>.$.h.l.$.<.=.%.-.#.=.;.h.3.:.$.$.$.$.$.^ ^ ^ Q ^ $.#.%.;.&.<.=.h.,.=.;.%.$.h.3.^ $.$.$.$.Q ;.;.W ^ ^ Q ^ $.",
"Q $.B.@.Q 6.*.*.2.1.&.2.=.+.<.8.+.;.8.#.=.5.l.f.<.<.Q -.-.E $.-.E Q 5.@.@.9.%.#.0.<.#.1.3.*.2.8.E #.8.+.@.6.$.E `.<.R $.-.E ^ 4.",
"@.#.%.$.@.;.$.#.2.1.:.<.<.=.<.2.%.#.;.#.=.2.1.#.<.%.+.-.-.Q $.$.Q $.-.#.#.2.:.:.2.1.&.1.y.:.1.<.#.;.<.#.$.-.@.@.g.$.Q 0.-.Q $.$.",
"2.<.@.5.;.+.%.2.:.1.3.1.:.9.:.#.2.;.+.8.;.&.g.-.#.@.5.+.@.5.$.Q -.$.Q ;.;.%.:.8.&.2.0.:.:.0.1.#.8.<.&.2.;.+.%.;.+.$.2.(.@.-.$.Q ",
"2.,.#.;.8.#.<.3.e.,.u.j.k.n.1.&.0.1.#.9.2.#.:.<Xs.$.5.$.@.5.$.Q 5.-.+.2.<.#.;.n.>.<.u.:.:.0.:.#.2.<.#.2.<.#.2.5.#.$.n.k.E 5.$.+.",
"w.f.3.;.%.2.:.%.).).>.l.XX(.Q.>.r.i.2.:.<.2.u.Q.2.%.$.%.-.#.%.-.#.-.;.;.%.<.:.^.u.:.1.1.2.1.<.2.:.2.2.*.#.=Xu.$.;.<.:.1.-.%.%.;.",
">.i.g.#.r.0.%.#.N.K.>.u.l.j.Q.n.r.r.v.>.>.u.#.#.8.5.+.5.;.E ;.<.+.;.9.%.#.9.%.&.2.3.>.3.3.&.h.g.#.>.0.%.:.;Xh.#.0.:.#.2.2.#.;.8.",
"t.r.3.1.oX3.>.>.2.>.w.,.2.>.t.l.l.i.u.3.1.3.Q.:.;.<.#.;.;.#.;.;.#.=.%.%.%.2.%.:.3.1.>.y.1.:.L.1X>.1.y.:.u.:.:.*.2.:.:.1.x.<.<.<.",
"h.r.#.u./.&.%.Z.r.,.u.j.j.g.t.p.z.i.e.u.y.>.h.0.#.:.9.#.#.5.%.#.2.%.,.,.2.&.1.0.&.y.u.>.>.u.u.+X/.3.>.2.u.i.2.3.:.:.'.w.w.0.:.#.",
"K.i.:.,.h.&.y.g.>.r.u.Q.,Xu.j.i.l.s.r.u.u.>.1.0.#.1.0.%.#.8.%.#.2.<.j.y.2.:.1.8.:.>.v.w.w.l.i.r.C.u.w.,.1.t.1.3.>.>.x.,.>.2.h.,.",
"L.z.h.u.3.3.,.,.y.3.y.l.(.t.F.H.p.i.i.y.r.u.1.:.<.<.:.<.2.&.:.8.:.<.2.1.1.y.,.*Xl.<.,.u.h.j.l.l.i.u.h.r.3.,.3.1.y.r.1.u.,.>.u.y.",
"D.k.c.z.t.y.>.>.0.Q.F.u.i.t.k.x.p.k.Z.F.>.m.1.>.9.:.#.8.2.#.<.0.:.w.i.1.w.v.j.^.v.,.w.i.l.p.k.l.t.j.V.w.w.u.y.:.Z.K.:.u.y.>.3.3.",
"F.D.H.k.h.y.w.u.v.K./.j.k.i.z.z.L.!.c.:Xl.,.,.<.1.1.1.2.<.:.1.<.1.c.u.y.i.i.i.1.3.,.u.i.i.t.h.j.j.H.l.r.r.i.u.y.i.i.w.u.r.1.r.2.",
"L.z.k.z.c.w.u.z.p.i.C.p.Q.'.k.D.Y.K.s.R.c.>.3.l.y.:.y.<.1.3.>.>.m.i.w.i.h.t.i.i.1.,.v.u.t.R.l.k.c.K.&XQ.u.w.u.g.w.e.b.y.1.u.w.w.",
"c.c.D.J.j.t.i.z.a.z.H.k.J.^.J.G.L.k.a.i.i.y.,.m.>.>.3.1.1.3.:.Q.[.1.r.i.h.w.u.i.w.r.b.t.e.}.<X).K.c.!.}.y.s.(.i.w.u.l.t.r.v.i.#X",
"p.[./.XXk.z.j.c.c.k.D.D.D.D.G.L.D.(.J.l.p.b.y.r.R.3.1.3.g.>.y.u.w.y.i.i.i.i.j.i.u.i.i.i.l.i.1XQ.l.H.l.e.w.Q.R.w.h.i.t.i.i.w.u.7X",
"p.D.[.G.I./.L.k.R.H.z.K.K.k.OX*XD.%XW.k.t.b.2.j._.y.*.R..X:.u.u.w.u.h.i.j.l.z.p.V.j.t.s.l.p.(.l.k.D.C.i.i.l.i.p.C.l.t.l.h.e.i.-X",
"k.k.J.L.J.5X*XD.H.H.c.c.k.k.XX%XH.z.H.k.i.z.i.r.s.y.y.Q.i.3.i.u.u.i.s.l.k.l.K.k.l.l.s.h.z.K.p.z.k.z.Q.k.l.z.j.c.L.D.c.l.s.i.i.z.",
"z.c.F.L.^.@XI.^.D.k.z.k.d.C.D.~._.z.p.l.i.XXK.y.^.r.m.H.l.V.k.e.i.s.j.^.C.j.l.C.k.z.C.p.j.C.oXk.z.l.Y.[.k.k.H.L.G.L.K.k.p.C.s.t.",
"A.z.k.H.L.I.!.U.D.H.Q.a.k.z.z.H.z.z.d.s.i.z.i.i.e.u.l.z.z.z.L.k.R.i.k.C.H.a.z.K.k.k.C.d.j.K.4Xk.z.l.t.i.l.d.D.L.L.G.L.H.k.V.s.p.",
"k.H.K.L.L.Y.U.I.L.H./.c.z.l.z.H.^.z.C.p.s.s.i.i.j.i.p.z.H.H.OXR.$Xk.A.z.c.D.c.z.K.z.D.|.l.H.XXz.c.s.h.s.s.R.L.L.L.L.D.J.z.k.l.z.",
"z.H.R.!.I.{.U.U.L.Y.$XT.R.z.H.R.!.k.R.H.d.V.s.p.l.l.a.R.L.D.L.z.D.XXY.H.I.L.z.D.H.L.OX[.z.a.K.H.a.z.R.s.d.K.L.J.R.L.D.R.H.d.z.C.",
"D.H.OXL.L././.I.H.Y.XXd.H.H.H.z.d.z.z.H.(.H.s.d.l.s.L./.L.H.H.Q.z.H.K.*XU.L.F.H.z.L.:Xs.d.z.z.H.D.H.H.z.H.L.L.D.L.H.D.H.H.z.z.k.",
"L.H.XX^.H.P.U.Y.D.z.R.D.d.R.D.d.T.z.H.D.K.d.z.C.d.s.}.5XI.L.D./.L.H.G.I.U.I.L.K.D.H.Y.H.H.R.d.J.L.L.D.R.R.P.K.L.P.L.L.D.H.R.z.s.",
"L.J.P.H.R.J.L.L.D.H.L.D.H.R.D.k.z.H.D.H.H.H.z.C.k.d.H.3XXXH.K.d.T.K.I.^.^.I.L.L.D./.Y.D.D.R.H./.*XH.D.H.H.d.z.L.D.D.L.D.D.H.z.a."
};
