/* XPM */
static char *_5b94d91c2b3403a9cd8f1cdbaf8d082gvNrD4LheDwahfeI[] = {
/* columns rows colors chars-per-pixel */
"64 64 153 2 ",
"   c #BE791C",
".  c #C37D1D",
"X  c #C5821D",
"o  c #CB861E",
"O  c #CD8A1E",
"+  c #D28D1F",
"@  c #CF901F",
"#  c #D4911F",
"$  c #DA961F",
"%  c #DC991F",
"&  c #E39E1F",
"*  c #E1A21F",
"=  c #C68220",
"-  c #CB8521",
";  c #CE8B20",
":  c #D08720",
">  c #D38D21",
",  c #CE9222",
"<  c #D59222",
"1  c #DA9522",
"2  c #D69923",
"3  c #DE9A23",
"4  c #E29D24",
"5  c #E89E25",
"6  c #E09A28",
"7  c #DEA224",
"8  c #E5A224",
"9  c #E9A525",
"0  c #E6AB25",
"q  c #ECAB25",
"w  c #E5A428",
"e  c #EAA628",
"r  c #E5AD29",
"t  c #EDAB28",
"y  c #F1AD24",
"u  c #F1AF25",
"i  c #F0AC27",
"p  c #F1AD26",
"a  c #F2AC26",
"s  c #F1AF27",
"d  c #F2AE27",
"f  c #F4AF26",
"g  c #F1AE25",
"h  c #F1AD28",
"j  c #F2AC28",
"k  c #F1AE29",
"l  c #F3AF28",
"z  c #F2AE29",
"x  c #F1AD29",
"c  c #EFB023",
"v  c #EEB123",
"b  c #EAB124",
"n  c #EDB125",
"m  c #EFB025",
"M  c #EFB224",
"N  c #EDB226",
"B  c #EFB226",
"V  c #EEB027",
"C  c #EEB424",
"Z  c #EEB425",
"A  c #EFB525",
"S  c #EFB726",
"D  c #EDB225",
"F  c #EEB827",
"G  c #E6B029",
"H  c #EFB128",
"J  c #ECB329",
"K  c #EFB929",
"L  c #F0B124",
"P  c #F3B024",
"I  c #F1B225",
"U  c #F2B026",
"Y  c #F3B127",
"T  c #F1B227",
"R  c #F0B327",
"E  c #F2B326",
"W  c #F4B027",
"Q  c #F4B226",
"!  c #F5B226",
"~  c #F5B327",
"^  c #F1B426",
"/  c #F2B526",
"(  c #F3B526",
")  c #F2B527",
"_  c #F3B627",
"`  c #F0B627",
"'  c #F5B426",
"]  c #F6B527",
"[  c #F5B726",
"{  c #F4B627",
"}  c #F7B626",
"|  c #F2B426",
" . c #F8B626",
".. c #F2B826",
"X. c #F3B927",
"o. c #F4B826",
"O. c #F5B927",
"+. c #F4BB26",
"@. c #F6B825",
"#. c #F5BC27",
"$. c #F5BA26",
"%. c #F8BB25",
"&. c #F9B826",
"*. c #F9BC25",
"=. c #F9BC26",
"-. c #F9BD27",
";. c #FABD27",
":. c #FBBE27",
">. c #F9BD27",
",. c #F1B129",
"<. c #F2B028",
"1. c #F5B128",
"2. c #F5B329",
"3. c #F1B428",
"4. c #F3B628",
"5. c #F1B62A",
"6. c #F7B529",
"7. c #F4B728",
"8. c #F5B728",
"9. c #F6B72A",
"0. c #F4B428",
"q. c #F8B528",
"w. c #F8B729",
"e. c #F8B62A",
"r. c #F8B629",
"t. c #F1B829",
"y. c #F2B828",
"u. c #F5B829",
"i. c #F4BA28",
"p. c #F6BA28",
"a. c #F7BB29",
"s. c #F5BB2B",
"d. c #F6BD28",
"f. c #F4BB29",
"g. c #FBBA28",
"h. c #F8BA29",
"j. c #F8BC28",
"k. c #F9BD29",
"l. c #F8BF28",
"z. c #FBBD2A",
"x. c #F8BF2A",
"c. c #F9BD29",
"v. c #F3C027",
"b. c #FAC227",
"n. c #FAC226",
"m. c #F6C129",
"M. c #FAC129",
"N. c #FBC328",
"B. c #FCC129",
"V. c #FEC128",
"C. c #FDC02A",
"Z. c #FDC22A",
"A. c #FCC22A",
/* pixels */
"8 8 9 8 9 9 8 9 9 4 9 9 5 9 8 9 4 9 8 9 9 9 8 9 8 9 9 8 9 8 8 9 9 9 9 9 9 9 5 8 9 5 9 9 5 9 4 9 9 9 9 9 8 8 8 9 9 8 9 5 9 e 0 9 ",
",.q 9 9 q e 9 9 j 9 9 q 9 9 9 9 y 0 9 8 9 q q e 9 9 j 0 9 y e 9 q 9 9 q e e 9 9 e e 9 0 9 9 9 q 9 9 9 9 q q 9 9 9 9 q 9 9 q q q ",
"v C &.q q u q q 9 j q 9 t 9 9 e t 9 e u u q Y M ` q j q r 9 9 9 9 j u 9 t j e j q j q e P e t q u q Y Y ..v ,.M j u u q M v r q ",
"3 3 0 q M [ &.u q f q j P j u 1.1.j P h.` Y M M ` f.5.8.Y Y 1.u d P j q t P j u q 1.y 1.! u ` o.i.o.N N 0 q Y P i.5.[ i.r 4 4 1 ",
"1 1 1 1 4 u [ *.d.r.r.8.Y P r.8.[ &.i.q 8 6 3 $ 4 4 * P f.c.8.8.Y Y r.8.[ r.P [ r.8.r.i.` %.c.M 0 4 4 1 3 3 4 1 9 0 0 & 1 1 1 6 ",
"4 3 4 4 4 $ 4 q ` c.V.c.#.*.c.c.o.q 3 4 % 6 & 4 3 4 6 6 3 0 8.i.#.o.&.:.8.8.&.h.i.V.V.i.C 0 8 4 4 4 % 4 3 3 1 4 1 1 6 4 4 4 4 & ",
"8 4 4 8 4 5 4 3 5 8 9 q M q q 9 8 4 4 8 5 8 4 8 3 4 4 8 8 4 4 4 q 0 o.n.V.Z.V.V.M.i.q 0 4 3 8 4 4 4 4 4 8 w 4 8 4 4 4 4 5 5 4 4 ",
"8 8 9 4 8 9 9 9 8 4 9 8 4 8 8 5 4 9 8 4 5 8 5 9 8 9 & 4 9 8 9 8 8 8 4 8 9 0 t 0 8 4 8 8 5 0 * 8 9 8 9 8 5 8 4 9 0 9 & 6 0 9 9 8 ",
"e 0 9 9 9 9 9 9 9 e q 0 0 9 9 9 9 e e 8 8 8 5 9 0 9 9 e 9 9 9 9 9 9 9 9 5 0 5 9 8 9 q 0 y u q q 0 q 0 8 w 9 9 9 8 9 9 0 9 9 8 9 ",
"9 9 j 0 9 9 q q 9 q q q u y j q q 0 j q 9 e q q 9 9 q q e y 9 9 8 q y 0 e 9 9 j 9 q Y [ q 9 * 0 q ` o.b q 0 u q 9 9 e 9 y j 9 9 ",
"j e u j ! P 0 P 8.o.i.K f.#...f.[ M M M q 0 u q y j j e 8 q y q j q j 9 1.u 0 Y i...0 O . . . . . o % F 5.q Y 0 u j u q 9 e q q ",
"P Y P &.P 8.5.f.r 0 2 , , , 2 7 r H f.+.*.&.&.t j q P u j f d d u y f &.P P ` o.0 < X - + : . + O X . X % P *.5.u j 8.u ,.f P f ",
"i.M i.f.o.[ 0 2 : o o o O o X . . o O 3 r f...n.` 8.[ M r.u 8.1.r.j h.q i.z.[ 4 + + + + + < + > > < > > X o 1 F f.*.&.N r.` [ [ ",
"V.d.` 0 1 < 1 : 1 $ 1 1 1 1 1 < 1 > O X X @ # 0 c.V.*.h.h.8.g.&.h.o.*.M.[ 0 1 O < 1 $ # 1 1 < > 1 1 1 < 1 1 : > 1 b o.V.V.c.V.c.",
"8 1 1 1 1 1 $ 1 1 1 3 > 6 1 1 3 1 1 1 % < < ; o < 8 5.V.V.V.V.M.V.c.V.j 6 + 1 1 1 $ 1 + 6 $ 6 1 1 1 1 1 1 1 3 1 2 < 1 3 0 q u r ",
"1 1 4 1 % 4 1 % 4 6 % 6 3 1 3 1 1 1 4 1 1 $ 2 < < > # 3 9 ` ..f.5.0 4 < 1 4 % 4 6 6 3 6 6 $ 1 & 1 3 4 1 3 1 % 1 4 4 4 1 1 1 6 1 ",
"4 4 & 4 4 4 3 4 4 4 & 4 4 4 & 4 4 4 4 4 6 3 4 4 6 3 3 1 3 1 1 4 1 6 3 4 4 4 4 4 8 4 4 4 4 4 3 4 5 4 3 4 4 4 4 4 4 3 4 3 4 4 4 4 ",
"8 5 4 4 4 9 & 4 8 & 6 8 8 4 4 9 4 4 5 4 8 8 3 4 5 5 8 8 4 5 5 8 9 4 4 5 4 5 4 4 8 4 3 5 5 8 3 5 4 4 4 4 8 8 3 8 5 4 8 9 8 4 8 8 ",
"0 0 0 0 q 0 q 9 q 9 8 9 9 8 8 * 4 9 8 9 9 5 8 5 9 9 5 9 9 9 4 8 9 8 5 8 9 4 9 9 9 8 8 9 8 8 0 9 5 9 0 9 8 8 9 9 q q 8 r M 0 q 0 ",
"+ < 1 1 3 3 0 M q r q q 9 9 9 8 y 9 9 9 9 q q 9 9 9 9 9 0 9 q 9 9 9 y e q 9 9 q 9 8 9 9 9 9 9 e 9 q 9 q H N M q 9 7 3 % 2 ; < # ",
"> ; : : > ; : > 1 2 8 0 ` ..q q 9 y q t q t e q j q e y e e y e 9 9 y 9 e 0 e e j q y 9 y q e q u ` q 0 8 % < > > : > : - : > : ",
"> 1 < 1 1 < > < < > ; < # 8 ..#.r.P u j f e j u y j ,.9 j f j q y d d 1.Y j f Y Y q f q.P &.[ P 0 4 < > + + + > > 1 < > 1 > 1 < ",
"1 1 1 > 1 1 1 1 1 1 < 1 < O > 3 r H s.x.8.P [ 1.f d 1.q.f d P 8.1.P d u 1.d P Y &.&.8.H 0 4 % 1 > + < 1 1 1 1 1 1 1 1 1 2 < 1 1 ",
"6 6 3 % 3 1 4 1 1 6 3 3 4 3 1 $ < 2 8 0 x.s.i.:.r.r.q.q.[ r.,.5.r.8.r.&.h.*.A.s.F r 7 3 6 1 1 3 6 6 4 1 6 $ $ 6 1 3 2 3 1 3 1 1 ",
"4 4 4 3 3 8 8 4 3 4 4 4 4 4 4 3 4 6 $ 1 1 3 b +.d.m.f.Z.M.V.M.V.Z.Z.A.f.K +.r 2 2 % 4 5 4 8 4 4 3 4 3 5 4 3 4 4 6 4 1 4 4 4 4 4 ",
"9 8 9 9 8 0 0 0 0 8 0 3 8 9 8 8 8 8 8 5 4 3 2 1 3 r r J F f.s.J F t 0 3 2 3 4 0 9 8 9 3 8 8 8 8 8 8 8 8 8 8 8 5 8 8 4 w 4 4 8 8 ",
"q 0 q C N b N q b M M q 0 0 q q 9 9 9 9 q 9 8 9 3 4 4 3 3 3 7 3 3 3 7 0 q 0 r 0 0 q q 0 0 0 e 0 e 9 q 9 9 8 8 8 8 9 9 9 0 9 0 0 ",
"b b 8 3 3 2 1 4 8 0 0 b S 0 Y q r 0 t q e 9 y 9 q j q t q q q u t N M M P r Y %.K f.5.J N 0 Y Y q 0 e u 0 q j q 0 q q u q u q ` ",
"4 # 1 1 > > < < # < 1 3 7 M #.S ` Y ,.P q ` u u P u u f ` Y q M Y J [ o...J G r w 8 r r J s.m.N Y ` M q y P P q Y u P Y Y ` [ C ",
"1 % 3 1 1 3 1 1 < 3 1 1 1 < 3 0 #.*.i.5.Y h.i.[ 8.[ ` Y ` @.5.` c.d.s.0 7 1 1 < > 1 < 1 1 4 r f.M.#.o.o.` 5.i.8.[ o.C ` #.*.b 3 ",
"4 1 4 % 3 3 4 3 6 3 4 3 3 6 1 1 2 0 o.m.#.*.*.f.o.*.d.#.g.*.M.F J 3 2 < 1 % 4 4 3 4 4 1 3 3 1 3 w J A.m...n.c.f.*.d.n.o.C 9 3 1 ",
"3 8 4 4 6 5 3 5 4 4 4 4 4 3 4 8 3 1 3 4 v ..c.Z.V.N.A.V...M 8 2 < 1 4 4 3 4 3 4 3 4 8 4 4 4 8 4 3 4 w r f.f.d.M.#.[ q 8 4 4 4 6 ",
"8 8 4 8 5 9 5 9 9 4 8 5 5 9 6 9 4 9 * 4 3 $ 3 r 8 8 0 7 1 1 1 4 7 0 8 9 5 8 4 9 9 8 8 9 5 9 4 9 8 8 8 0 8 0 8 r 0 9 8 0 0 0 8 9 ",
"e t 9 9 9 9 8 9 9 9 9 0 9 9 9 9 y 9 q 9 q 9 8 3 3 & 6 4 5 9 9 w 9 8 9 9 9 9 9 9 q e 9 0 9 9 9 q t 9 9 9 P ^ M 0 r 0 u q M u 0 9 ",
"t r u 9 q u q e 9 y q 9 q t q 9 e q q y q 0 j t u u q q q 9 0 9 q y y 9 e j q q 9 u 0 t u 0 q 0 u r 5.` r % 1 > $ # < 1 3 8 M M ",
"o.&.Y q u f ,.P u j t P Y q u P 1.u u ` Y [ i.M ` q ,.P u u P f u d j q Y P P ` ` o.[ i.i.P 8.[ %.C 8 3 > < # $ 1 1 1 1 < 1 3 0 ",
"0 q #.*.8.` [ 8.1.P r.8.,.[ h.` 5.o.i.f.f.m.m.s.M.m.d.N M [ 1.d ,.j [ &.8.` h.c...0 0 b b ` o.r 8 # > < 1 3 6 3 3 1 3 1 1 3 $ < ",
"6 $ 0 i.d.d.c.&.i.c.h.i.h.i.&.M.M.i.b r 4 3 3 7 8 J f.A.d.d.c.i.c.P [ N.d.d.F 7 1 1 3 < < # # < + 2 % 4 3 3 1 3 1 3 3 4 1 3 4 3 ",
"8 3 4 4 0 q f.d.Z.V.A.A.n.m.f.b w 4 6 4 4 9 4 4 3 6 7 r K m.N.A.A.M.A.N.S 8 < 2 4 4 4 8 4 3 3 3 4 4 4 4 4 9 4 4 4 4 4 6 8 4 8 3 ",
"5 5 0 5 4 9 8 0 t Y 5.5.t 0 4 8 4 * 8 4 4 4 4 9 9 8 4 3 8 8 w t F K J 7 1 3 4 9 8 9 9 9 9 9 8 8 8 8 4 4 4 4 4 9 9 8 4 & w 5 8 8 ",
"8 r 0 q 9 0 9 0 8 9 q 8 9 0 9 8 8 9 9 8 9 8 9 9 8 9 8 9 w 9 4 9 4 8 4 8 4 8 9 q 8 0 q 0 0 e q 9 8 q 9 8 8 9 9 9 8 9 9 9 9 e 9 9 ",
"q 0 v b b M t [ r M Y u q y u u q y u q q 9 u q q u e q y y e 0 0 9 y 0 0 q 0 Y v ^ o.^ F M u q y u e q q 9 j 9 q q u e j q 9 0 ",
"[ +...N P u 0 r Y M ` Y %.#.^ ` Y q P P Y 0 P 0 t q u q 9 e u j Y 1.u u ` Y b f.F G 0 r J f...N u u u ,.u 9 Y 0 q q Y q 0 M Y Y ",
"q 8 3 1 1 < # $ < # # 1 % 7 v C #.n.#.` [ 8.[ ,.q 1.[ u z q.[ P P ,.P i.d.+.0 7 < > > > < 2 J +.c.[ ` P ! &.8.,.q [ [ v ` o.d.o.",
"3 + 1 # 1 1 3 % 1 1 1 < 1 1 # + 1 * b N *.c...c.` i.[ [ o.Y o...d.5.n.f.J 7 1 1 1 1 1 1 1 1 > 3 F A.d...[ 8.5.d.8.i.o...c.[ Y 0 ",
"3 3 4 4 1 3 3 1 % 4 6 6 1 3 3 4 1 1 < # 1 0 C #.N.N.:.V.n.*.:.M.c.M.m.8 X 2 3 1 3 3 5 1 3 4 4 3 1 w N m.M.A.c.M.M.M.d.5.0 4 6 1 ",
"5 3 4 4 4 4 4 4 6 4 4 1 4 4 4 4 3 8 5 4 6 $ 1 2 3 q N M.n.A.A.N.f.0 2 > # 4 4 8 4 4 4 1 4 4 8 4 3 4 3 0 0 F F ,.0 9 4 & 1 4 4 4 ",
"4 5 8 4 4 w 4 5 9 9 0 9 0 8 8 8 8 8 9 4 & 8 8 1 4 3 1 1 7 8 8 7 2 1 1 2 3 9 4 8 w 9 8 9 9 4 5 8 4 5 9 3 8 4 5 3 5 8 8 8 9 9 5 8 ",
"8 w 9 9 q w 0 9 q e 0 0 0 q 9 q u 9 9 w 9 9 w 9 9 9 9 4 0 3 4 4 4 4 8 9 q e 9 0 q 9 e 0 9 9 9 q q 9 9 9 q 9 0 q 9 9 0 9 e 8 9 9 ",
"q 0 e y t q y q u Y b N &.o.M q 0 q q y f e 8 j y e u j j q q q q 0 u q q u y q q j 8 q u u 9 q 0 9 q u Y r 0 P u u Y r y y u e ",
"j f a f u q M M i.N 0 7 7 0 5.d.` 5.M Y Y u u y 8.q q j 8.M b J o.*.F i.8.Y Y M P 5.Y Y q q Y Y ,.5.Y ^ +...[ ` #.f.H M 8.Y u j ",
"P 1.&.! f.f.c.f.8 ; = X = = o 7 K n.Y 5.q.[ [ &.1.Y [ r.....M.s.b b b b N N f.c.d...#.o.#.o.S N ` *.%...8 # O + $ 8 S V.` ,.h.8.",
"A.i.V.d.M.` 5 < - : > o ; : ; - > J Z.M.h.f.c.[ :.*.d.M.f.r 3 ; - . - - X X o # 3 0 N ..#.n.n.n.o.@.7 X . . - o o - # 7 5.M.M.o.",
"c.V.o.M 8 < o > 1 > > 1 ; > > 1 + + 3 K A.A.Z.A.M.M.s.7 < : : + > < > > < + + o o X X O O < 1 3 @ o . . O + < > > < > O < 8 ` o.",
"3 3 < : > 1 < > 1 > > < 1 + < 1 1 + > 1 3 r J J r 1 1 < < 2 < < 1 $ < < 1 # < 2 1 < # # < o o o o ; ; 1 1 < # 1 1 < 1 1 < > # 1 ",
"1 1 6 3 1 3 6 $ 1 6 4 4 % 6 1 6 6 1 4 < 1 2 # 1 1 1 1 3 1 3 1 $ 1 1 3 3 1 3 6 1 < 3 4 3 4 3 1 3 4 3 3 1 4 < 1 3 3 1 2 3 1 3 1 1 ",
"3 4 8 % 3 8 4 4 1 4 4 3 5 4 3 3 5 3 4 5 3 3 4 8 4 4 % 4 4 4 3 6 4 4 4 1 3 4 4 4 1 6 4 3 8 4 8 7 8 3 % 8 % 3 8 4 4 3 1 4 4 4 & 4 ",
"0 8 8 9 8 8 9 9 9 8 w 5 5 8 9 8 5 0 0 w 8 9 8 8 0 0 8 8 4 8 0 0 4 8 8 9 8 9 8 9 0 0 q 0 r q q 0 0 9 0 8 8 9 8 5 4 9 9 w 4 9 9 4 ",
"q q 9 t q q 0 9 9 9 q 9 0 9 q 9 0 e 9 q q r u M q P ^ v q u q q q 0 9 t q q q M v M 0 8 7 % 8 8 0 q v P q 9 0 9 9 q q 0 0 q j r ",
"M i.f...Y q Y P P u y 0 u q f d u q P %...5.q * 7 8 0 q b ^ ..d.@.&.[ [ i.b N q * 2 # O + : # # # % 8 C ^ @.Y u u j 1.Y u Y 8.c.",
"8 % 0 M ` 8.h.o.[ o.[ i.P 8.8.,.o.#.#.N 0 4 1 1 1 < 1 1 3 3 4 7 v q H M 0 3 1 < < 1 1 3 1 1 1 1 1 1 < 2 4 N *.o.z.` o.*.z.o.q 8 ",
"3 1 3 1 3 4 0 Y ` V.z.n.V.V.V.V.o.Y 0 1 < 6 1 1 % 3 1 1 3 1 1 1 3 1 3 2 1 3 4 % 1 3 3 1 4 $ 4 4 1 3 % 6 1 3 8 0 ` i.M 9 8 4 1 1 ",
"4 3 6 4 1 4 3 4 4 8 t 0 ^ P t 0 1 6 4 3 3 6 4 3 4 4 6 4 4 4 3 1 3 3 3 3 3 1 4 4 3 4 4 3 6 4 3 6 1 4 & 6 3 6 4 1 % 6 6 3 1 3 8 1 ",
"6 8 4 4 8 e 6 4 4 8 5 6 3 6 6 4 w 8 4 5 5 4 4 8 5 4 9 4 8 6 w 8 8 5 8 4 8 w 3 5 4 4 5 4 4 6 8 8 8 5 4 4 w 6 8 5 9 8 w 4 8 4 8 8 "
};
