/* XPM */
static char *_d806e1e292740bda055d82649cd549bTJghFyuNI1UTLBsl[] = {
/* columns rows colors chars-per-pixel */
"64 64 63 1 ",
"  c gray9",
". c #191717",
"X c #1D1B1B",
"o c #2B0707",
"O c #330A0A",
"+ c #3D0C0C",
"@ c #261616",
"# c #2D1212",
"$ c #221817",
"% c #211E1E",
"& c #2B1C1C",
"* c #321515",
"= c #3D1615",
"- c #331B1B",
"; c #211F20",
": c #252323",
"> c #2A2626",
", c #282728",
"< c #2C2B2B",
"1 c #342323",
"2 c #3D2423",
"3 c #322E2E",
"4 c #3C2C2C",
"5 c #30302F",
"6 c #333232",
"7 c #3B3434",
"8 c #383837",
"9 c #3B3B3B",
"0 c #450D0C",
"q c #4C0D0D",
"w c #530D0D",
"e c #5A0C0C",
"r c #411414",
"t c #4B1616",
"y c #411919",
"u c #4D1E1E",
"i c #551414",
"p c #5C1212",
"a c #610F0F",
"s c #641414",
"d c #661A1A",
"f c #691B1B",
"g c #462121",
"h c #492424",
"j c #402B2B",
"k c #492C2C",
"l c #453535",
"z c #423D3D",
"x c #4A3C3C",
"c c #692121",
"v c #6D2C2C",
"b c #722E2E",
"n c #6F3030",
"m c #723535",
"M c #723837",
"N c #743F3E",
"B c #434242",
"V c #494444",
"C c #4D4C4C",
"Z c #4F504F",
"A c #545454",
"S c #5F5E5E",
"D c #606060",
/* pixels */
",,>,55BB,,64VVBB<<<<5<6888,:43333356:::,,,:: X,,,,88CCSS88,<559z",
",<:,55B9,<64CBBB5<5<<58688::66<<3365:,::,::;XX<:,,86CCSS88<,55zz",
"66BB9899<<<>;:<<<<5<55ZA5<:,33<5VV66<<<<,,::::XX55559BCB,,:,XX55",
"66BV8899<<,,:;<5<<<<55AZ<<::63<<BB66<<,<,<:::%XX5555B9CC,,::%X<5",
"ZZDD996667::;;;;>,<<88CC63,<3<<<5<<<<<55,<:::;%X<<:,88<<><676488",
"CCSS996666:>;;;;>><,zzCZ631>3<<<<<<<<,55,<::%%XX,<::865<<>766686",
"ZZZZ989B6699>;%%%%%>55<>>:::35,<,<,,6655<<%:::X%::%%;;;;<<<>><89",
"ZZZZ86B96699>;%%%%:>55<>::;:65<,,<,,6655<<:::;%%::%%;%::<1><><88",
"BB6666zzCC99,:%X%%>>552255::<>,,<,,<<,<<<5::;;;;:::;,,55<<%>>,68",
"CC68889zCC99,:X%%%>>3ree45::<<,,,5<,,,<,5<::;;;;::;;,,55<1>%>,86",
"8666CZAACC::%%;><<>u++esu>::::<,5<5<,<>,,,XX XX;,:<<666655>>::55",
"6866CCSACV::%;:;<4iaw+qfd4>:>:><<5<<,,<,,,XXX XX:,<<866655>>::<5",
"66BBCCVB>>;:3<CVhdsadwqpvvX%>%>:,,:,,,<<:>X .X;;,,<5655566>>::<<",
"66BBCCVB>>:;<3Vpsdccdsqwvv&%%:::,,:,,,><>> X  ::,,<<556566<>::<<",
"<,<<;:.XXX,>9gqpscmbffpqi1$%..%;;XX;::<<::..XX<,,,<<55556555,:::",
",<<<:;XXXX>;+0wpfdvbbfdeeyyi..;;X;XX::,<:,.XXX<<,,<<<5555555,::,",
"<<66VB33:%%&+0sddcbmmdaaesss=X669BZC,<99,<::%%<<<,<,<<555<65,,;;",
",,66Vx33%;%:tfffnMmbsaawpfsw0X66BBCZ,<99<<::%%<<<,<<<<555<55,,:;",
"<<558866;;%wesscNMcssapqqssq0*::<<5566z989,<$%;%,,,,<<56<5<5:%<>",
"<<668867;&$qw0aanncsassweasp*@>:5<5566z999,,%%%;:,,<<<665<<<%:<>",
"<56666<5<<&%OOq+rbceaaaaaew00$89BBBB885<68<<%X%X;,:,,<<<,<<,%%98",
"555666555<;:@#%OOteeewaawqq0*%88B9BB88<566<5X%%%;:,:,,<<,,,<%%8z",
",<5566<5<<,,:::@%%e=yqq0+0r&:-kzZZZZ999988::;;,:55,,::::<<>>>%>:",
",<5<66<<<<<,;X&&&%%%>y5-0-:>%&kzZZZA899986:>;%::55,:::::5<>>&>::",
"<<5<<<5<,,;X;;:&&>>>,,<<>>>>>%99BBAA9988<5XX;;88<<<<<<<<5<::$X<<",
"<<<5<<55,,X;;;::>:><,,<<>>>>%>z9BBAAB9865<X%%;88<<<,,<<5<3&:$X<5",
"555<66,,;   XX::<<;;;;::>>3<>>5<BBAACZ55>>X%<5889z68685535::X%55",
"55<566,, ;    ::<<:;;;,:>>3<>>3<B9AACZ66>>%%<<899966865555::XX56",
"<5,,;;      ;XX;,:888856::995<>:BB68;;::%&%%BB995555<5<<66<<:%<<",
"<<,,;:      ;X;X,,889856,:99<<>>zB66;;:,%%%XBBB9555<5<5587><%:><",
" X;;;XXX,:;;  :,::88ZZBB<<5555xV33%%,:,,:>55AACC55<<<555AA66>>XX",
"  ;;;XXX,:;;  ::::88ZABC<,553<Vx43:X::,:>:65SACC55<<5556AA66<<XX",
"5565,:::,:::XX,,,,68CCSS88<,<3zz,<,:559B><66VV9B5<<<<56888;>363<",
"5666::::::::X$,,,,88VCSS88,<55zz<,,,55BB<>64VCBB<5<<<38688>>33<<",
"BB56<<<,<,:::%XX55559BBC,,:>%%5566BB8999<<>>;;35<<5<55ZA<<,>33<3",
"BB665<<<,,,:%:XX65669BCV,,:>X%5566BV899935>>;><<<<5<33AA5<>;64<<",
"5<,<<<<5<,:::%XX,,,:8855<,587686CCDD998668::%%%;,,<<99CC46>>3<<<",
"<5,<<<55,<::;;X%<,,:86<<,<665576CCDD996676::%%;%,,,,99CC33<<<3<<",
"<,<,6655<<:;:;%%:,;;%%;:1<1<<,89ZZZZ88996699>;%%;;:;66<>:>>;63<,",
",<,<6655<<;:::X%:;;X%%::<<<1,,99ZZZZ689B6599:>%%;X::55><>;;;66,<",
"<<,<,<<,5<::%;;;::;;,,551<:%,<86BC666699ZC7l::XX%%:<555553::><,,",
"ty<<,,<<<<::;%;::::;,<<5><::,,66CB66869BZZll::%X;%>:<<5556>;><,,",
"tt5<<,,,,,XX XXX,:<<665555>>::558666ZVAABC::X;::5<<,,,,,,,:>:>,<",
"r0qq*-,,,,XXX XX:,<<685855:>::558886Z9SACC::;;::5<,,,,,,,,>:1><,",
"00qq**><>>.X  :;,,<56655861>::<<66BBCBBB:,;;31VV5511qq++5<;X&1::",
"q0eeccw>::X X ;:,,5<566566>>::<<66BBCCBC,,:;<3BV5521qqO+<5X;%:11",
"q0eaccew&:  XX<,,,<<55555565::::<,<<;:  XX::99<5<<==epccww;;..@&",
"qqeeaaee,,X X;,,,,<<<55<5555:>,:<,<5;,XXXX:>7l55,<==eefcww;X. --",
"qqeeaaee><::X%<<,,<<<<55<555>>%:><66Vx<5%>%;&&><==qqwwaaea%%OO4j",
"wweweewwqq::%X<<<,<,<<555<55>>&:<>66xV55%%%;::>>==qqeeaaae%$oO65",
"qwwwewwwqq<>%%%%,:<,<<665<<5:%><<<668886%%%X:;OOsawwewewwwqq$X,,",
"qqwwewqqqq00%%%%:,,<<<6655<<:&>><<668866;:XX;:OOsaqweweewqqqX%,:",
"q0wwwwqqqq00%X%%::::,<<<,,,<;;993<666555<<;;&%++++0qwwweqwqq0088",
"qqqqqqqq005<X%X%:::,<,<<,,,,;;8833665655<5::%&+00+0qqweeqqq00q89",
"0qqqwqwq00:>:%:,55,:;:::5<,,:;:,<<5<655<<<,,++OOqq0qqwqqwq00##B9",
"wwqwwe0066>:%%::65:,:::,<<<,::::<,6<5555<<<,++oOqqq0qqqqwq00#@9B",
"wwqwee0055%X%%86<<,<<<<<33:;XX<<<<<5<<55,,;XO+OOewwwqwww00##>:99",
"qq003486<5XX%:8855<,<,<<34;:%%<5<,<<5<5<,,;;++OOwewwqqew0+##&:99",
"qw00ll66>>%%5<8999688855<6>;X%5365<666,,XX*#XXOOq0qq00::,<<<>>53",
"BBAACC65:>X%<5889966685563;;%X63655<66;,XX#@X O+q0qq00:,,,<<>>3<",
"z986%%>>%>$%BB99655<<5<586,<;;<<<<,,;:    MM;X;;Oooo9855@@44<1::",
"BB68%%::%%%%BBBz55<55<5<68><;;<>5<,,;;X   MMX;XXOOoo9955&@4433>:",
"43;;%>>>>>66AAZC5<<<<665AA66,>;X  ;;X;XX::;;  ,:,:88ZZVV<,555<VV",
"53%;>>1>>&55AACC55<<5<<6AAyy,,X;  ;;; ;X::;;  :::,88ZZCB<<5533xV"
};
